ISO-10303-21;
HEADER;
/* Generated by software containing ST-Developer
 * from STEP Tools, Inc. (www.steptools.com) 
 */

FILE_DESCRIPTION(
/* description */ (''),
/* implementation_level */ '2;1');

FILE_NAME(
/* name */ 'Gimbal Base v8.step',
/* time_stamp */ '2025-04-23T18:06:52-06:00',
/* author */ (''),
/* organization */ (''),
/* preprocessor_version */ 'ST-DEVELOPER v20.1',
/* originating_system */ 'Autodesk Translation Framework v14.4.0.0',
/* authorisation */ '');

FILE_SCHEMA (('AUTOMOTIVE_DESIGN { 1 0 10303 214 3 1 1 }'));
ENDSEC;

DATA;
#10=MECHANICAL_DESIGN_GEOMETRIC_PRESENTATION_REPRESENTATION('',(#13),#1709);
#11=SHAPE_REPRESENTATION_RELATIONSHIP('SRR','None',#1716,#12);
#12=ADVANCED_BREP_SHAPE_REPRESENTATION('',(#14),#1708);
#13=STYLED_ITEM('',(#1725),#14);
#14=MANIFOLD_SOLID_BREP('Body3',#977);
#15=FACE_BOUND('',#136,.T.);
#16=FACE_BOUND('',#137,.T.);
#17=FACE_BOUND('',#138,.T.);
#18=FACE_BOUND('',#139,.T.);
#19=FACE_BOUND('',#165,.T.);
#20=FACE_BOUND('',#168,.T.);
#21=FACE_BOUND('',#171,.T.);
#22=FACE_BOUND('',#174,.T.);
#23=FACE_BOUND('',#190,.T.);
#24=FACE_BOUND('',#192,.T.);
#25=FACE_BOUND('',#193,.T.);
#26=FACE_BOUND('',#194,.T.);
#27=FACE_BOUND('',#195,.T.);
#28=FACE_BOUND('',#196,.T.);
#29=FACE_BOUND('',#202,.T.);
#30=FACE_BOUND('',#203,.T.);
#31=FACE_BOUND('',#204,.T.);
#32=FACE_BOUND('',#205,.T.);
#33=FACE_BOUND('',#206,.T.);
#34=PLANE('',#998);
#35=PLANE('',#1000);
#36=PLANE('',#1013);
#37=PLANE('',#1014);
#38=PLANE('',#1022);
#39=PLANE('',#1023);
#40=PLANE('',#1024);
#41=PLANE('',#1026);
#42=PLANE('',#1028);
#43=PLANE('',#1030);
#44=PLANE('',#1034);
#45=PLANE('',#1037);
#46=PLANE('',#1042);
#47=PLANE('',#1046);
#48=PLANE('',#1051);
#49=PLANE('',#1056);
#50=PLANE('',#1061);
#51=PLANE('',#1071);
#52=PLANE('',#1072);
#53=PLANE('',#1073);
#54=PLANE('',#1074);
#55=PLANE('',#1075);
#56=PLANE('',#1076);
#57=PLANE('',#1077);
#58=PLANE('',#1078);
#59=PLANE('',#1079);
#60=PLANE('',#1083);
#61=PLANE('',#1085);
#62=PLANE('',#1088);
#63=PLANE('',#1089);
#64=PLANE('',#1090);
#65=PLANE('',#1091);
#66=B_SPLINE_CURVE_WITH_KNOTS('',3,(#1391,#1392,#1393,#1394,#1395,#1396,
#1397,#1398,#1399,#1400),.UNSPECIFIED.,.F.,.F.,(4,2,2,2,4),(0.956836274276833,
1.06066639508137,1.17871711672938,1.30947095041095,1.44384352231701),
 .UNSPECIFIED.);
#67=B_SPLINE_CURVE_WITH_KNOTS('',3,(#1407,#1408,#1409,#1410,#1411,#1412,
#1413,#1414,#1415,#1416,#1417,#1418),.UNSPECIFIED.,.F.,.F.,(4,2,2,2,2,4),
(-1.46498941530179,-1.40982198697802,-1.09441730412505,-0.882573027471851,
-0.670728750818654,-0.409201155253006),.UNSPECIFIED.);
#68=B_SPLINE_CURVE_WITH_KNOTS('',3,(#1463,#1464,#1465,#1466,#1467,#1468,
#1469,#1470,#1471,#1472),.UNSPECIFIED.,.F.,.F.,(4,2,2,2,4),(0.469829026236655,
0.604201598142717,0.734955431824287,0.853006153472297,0.956836274276833),
 .UNSPECIFIED.);
#69=B_SPLINE_CURVE_WITH_KNOTS('',3,(#1492,#1493,#1494,#1495,#1496,#1497,
#1498,#1499,#1500,#1501),.UNSPECIFIED.,.F.,.F.,(4,2,2,2,4),(0.,0.406725173030458,
0.707088926300573,0.850700330403728,0.991713309543617),.UNSPECIFIED.);
#70=B_SPLINE_CURVE_WITH_KNOTS('',3,(#1505,#1506,#1507,#1508,#1509,#1510,
#1511,#1512),.UNSPECIFIED.,.F.,.F.,(4,2,2,4),(0.,0.282641238919942,0.617402762993486,
1.13580673952331),.UNSPECIFIED.);
#71=B_SPLINE_CURVE_WITH_KNOTS('',3,(#1519,#1520,#1521,#1522,#1523,#1524,
#1525,#1526),.UNSPECIFIED.,.F.,.F.,(4,2,2,4),(0.,0.282641238919943,0.61740276299349,
1.13580673952332),.UNSPECIFIED.);
#72=TOROIDAL_SURFACE('',#994,13.,3.);
#73=TOROIDAL_SURFACE('',#1010,13.,3.);
#74=FACE_OUTER_BOUND('',#131,.T.);
#75=FACE_OUTER_BOUND('',#132,.T.);
#76=FACE_OUTER_BOUND('',#133,.T.);
#77=FACE_OUTER_BOUND('',#134,.T.);
#78=FACE_OUTER_BOUND('',#135,.T.);
#79=FACE_OUTER_BOUND('',#140,.T.);
#80=FACE_OUTER_BOUND('',#141,.T.);
#81=FACE_OUTER_BOUND('',#142,.T.);
#82=FACE_OUTER_BOUND('',#143,.T.);
#83=FACE_OUTER_BOUND('',#144,.T.);
#84=FACE_OUTER_BOUND('',#145,.T.);
#85=FACE_OUTER_BOUND('',#146,.T.);
#86=FACE_OUTER_BOUND('',#147,.T.);
#87=FACE_OUTER_BOUND('',#148,.T.);
#88=FACE_OUTER_BOUND('',#149,.T.);
#89=FACE_OUTER_BOUND('',#150,.T.);
#90=FACE_OUTER_BOUND('',#151,.T.);
#91=FACE_OUTER_BOUND('',#152,.T.);
#92=FACE_OUTER_BOUND('',#153,.T.);
#93=FACE_OUTER_BOUND('',#154,.T.);
#94=FACE_OUTER_BOUND('',#155,.T.);
#95=FACE_OUTER_BOUND('',#156,.T.);
#96=FACE_OUTER_BOUND('',#157,.T.);
#97=FACE_OUTER_BOUND('',#158,.T.);
#98=FACE_OUTER_BOUND('',#159,.T.);
#99=FACE_OUTER_BOUND('',#160,.T.);
#100=FACE_OUTER_BOUND('',#161,.T.);
#101=FACE_OUTER_BOUND('',#162,.T.);
#102=FACE_OUTER_BOUND('',#163,.T.);
#103=FACE_OUTER_BOUND('',#164,.T.);
#104=FACE_OUTER_BOUND('',#166,.T.);
#105=FACE_OUTER_BOUND('',#167,.T.);
#106=FACE_OUTER_BOUND('',#169,.T.);
#107=FACE_OUTER_BOUND('',#170,.T.);
#108=FACE_OUTER_BOUND('',#172,.T.);
#109=FACE_OUTER_BOUND('',#173,.T.);
#110=FACE_OUTER_BOUND('',#175,.T.);
#111=FACE_OUTER_BOUND('',#176,.T.);
#112=FACE_OUTER_BOUND('',#177,.T.);
#113=FACE_OUTER_BOUND('',#178,.T.);
#114=FACE_OUTER_BOUND('',#179,.T.);
#115=FACE_OUTER_BOUND('',#180,.T.);
#116=FACE_OUTER_BOUND('',#181,.T.);
#117=FACE_OUTER_BOUND('',#182,.T.);
#118=FACE_OUTER_BOUND('',#183,.T.);
#119=FACE_OUTER_BOUND('',#184,.T.);
#120=FACE_OUTER_BOUND('',#185,.T.);
#121=FACE_OUTER_BOUND('',#186,.T.);
#122=FACE_OUTER_BOUND('',#187,.T.);
#123=FACE_OUTER_BOUND('',#188,.T.);
#124=FACE_OUTER_BOUND('',#189,.T.);
#125=FACE_OUTER_BOUND('',#191,.T.);
#126=FACE_OUTER_BOUND('',#197,.T.);
#127=FACE_OUTER_BOUND('',#198,.T.);
#128=FACE_OUTER_BOUND('',#199,.T.);
#129=FACE_OUTER_BOUND('',#200,.T.);
#130=FACE_OUTER_BOUND('',#201,.T.);
#131=EDGE_LOOP('',(#633,#634,#635,#636));
#132=EDGE_LOOP('',(#637,#638,#639,#640));
#133=EDGE_LOOP('',(#641,#642,#643,#644));
#134=EDGE_LOOP('',(#645,#646,#647,#648,#649));
#135=EDGE_LOOP('',(#650,#651,#652,#653,#654,#655,#656,#657,#658,#659,#660,
#661));
#136=EDGE_LOOP('',(#662));
#137=EDGE_LOOP('',(#663));
#138=EDGE_LOOP('',(#664));
#139=EDGE_LOOP('',(#665));
#140=EDGE_LOOP('',(#666,#667,#668,#669));
#141=EDGE_LOOP('',(#670,#671,#672,#673));
#142=EDGE_LOOP('',(#674,#675,#676,#677,#678,#679));
#143=EDGE_LOOP('',(#680,#681,#682,#683,#684));
#144=EDGE_LOOP('',(#685,#686,#687,#688,#689,#690));
#145=EDGE_LOOP('',(#691,#692,#693,#694,#695,#696));
#146=EDGE_LOOP('',(#697,#698,#699,#700));
#147=EDGE_LOOP('',(#701,#702,#703,#704));
#148=EDGE_LOOP('',(#705,#706,#707,#708));
#149=EDGE_LOOP('',(#709,#710,#711,#712,#713,#714));
#150=EDGE_LOOP('',(#715));
#151=EDGE_LOOP('',(#716));
#152=EDGE_LOOP('',(#717));
#153=EDGE_LOOP('',(#718));
#154=EDGE_LOOP('',(#719,#720,#721,#722));
#155=EDGE_LOOP('',(#723,#724,#725,#726));
#156=EDGE_LOOP('',(#727,#728,#729,#730));
#157=EDGE_LOOP('',(#731,#732,#733,#734,#735,#736));
#158=EDGE_LOOP('',(#737,#738,#739,#740));
#159=EDGE_LOOP('',(#741,#742,#743,#744));
#160=EDGE_LOOP('',(#745,#746,#747,#748));
#161=EDGE_LOOP('',(#749,#750,#751,#752));
#162=EDGE_LOOP('',(#753,#754,#755,#756));
#163=EDGE_LOOP('',(#757,#758,#759,#760));
#164=EDGE_LOOP('',(#761));
#165=EDGE_LOOP('',(#762));
#166=EDGE_LOOP('',(#763,#764,#765,#766));
#167=EDGE_LOOP('',(#767));
#168=EDGE_LOOP('',(#768));
#169=EDGE_LOOP('',(#769,#770,#771,#772));
#170=EDGE_LOOP('',(#773));
#171=EDGE_LOOP('',(#774));
#172=EDGE_LOOP('',(#775,#776,#777,#778));
#173=EDGE_LOOP('',(#779));
#174=EDGE_LOOP('',(#780));
#175=EDGE_LOOP('',(#781,#782,#783,#784));
#176=EDGE_LOOP('',(#785,#786,#787,#788));
#177=EDGE_LOOP('',(#789,#790,#791,#792));
#178=EDGE_LOOP('',(#793,#794,#795,#796));
#179=EDGE_LOOP('',(#797,#798,#799,#800));
#180=EDGE_LOOP('',(#801,#802,#803,#804));
#181=EDGE_LOOP('',(#805,#806,#807,#808));
#182=EDGE_LOOP('',(#809,#810,#811,#812));
#183=EDGE_LOOP('',(#813,#814,#815,#816));
#184=EDGE_LOOP('',(#817,#818,#819,#820));
#185=EDGE_LOOP('',(#821,#822,#823,#824,#825,#826,#827,#828,#829,#830));
#186=EDGE_LOOP('',(#831,#832,#833,#834));
#187=EDGE_LOOP('',(#835,#836,#837,#838,#839,#840,#841,#842,#843,#844,#845,
#846,#847,#848,#849,#850,#851,#852));
#188=EDGE_LOOP('',(#853,#854,#855,#856));
#189=EDGE_LOOP('',(#857));
#190=EDGE_LOOP('',(#858));
#191=EDGE_LOOP('',(#859,#860,#861,#862,#863,#864,#865,#866));
#192=EDGE_LOOP('',(#867));
#193=EDGE_LOOP('',(#868));
#194=EDGE_LOOP('',(#869));
#195=EDGE_LOOP('',(#870));
#196=EDGE_LOOP('',(#871));
#197=EDGE_LOOP('',(#872,#873,#874,#875));
#198=EDGE_LOOP('',(#876,#877,#878,#879));
#199=EDGE_LOOP('',(#880,#881,#882,#883));
#200=EDGE_LOOP('',(#884,#885,#886,#887));
#201=EDGE_LOOP('',(#888,#889,#890,#891));
#202=EDGE_LOOP('',(#892));
#203=EDGE_LOOP('',(#893));
#204=EDGE_LOOP('',(#894));
#205=EDGE_LOOP('',(#895));
#206=EDGE_LOOP('',(#896));
#207=LINE('',#1384,#289);
#208=LINE('',#1387,#290);
#209=LINE('',#1405,#291);
#210=LINE('',#1419,#292);
#211=LINE('',#1422,#293);
#212=LINE('',#1424,#294);
#213=LINE('',#1428,#295);
#214=LINE('',#1432,#296);
#215=LINE('',#1436,#297);
#216=LINE('',#1440,#298);
#217=LINE('',#1442,#299);
#218=LINE('',#1444,#300);
#219=LINE('',#1445,#301);
#220=LINE('',#1456,#302);
#221=LINE('',#1459,#303);
#222=LINE('',#1477,#304);
#223=LINE('',#1479,#305);
#224=LINE('',#1480,#306);
#225=LINE('',#1483,#307);
#226=LINE('',#1486,#308);
#227=LINE('',#1490,#309);
#228=LINE('',#1504,#310);
#229=LINE('',#1515,#311);
#230=LINE('',#1527,#312);
#231=LINE('',#1529,#313);
#232=LINE('',#1530,#314);
#233=LINE('',#1532,#315);
#234=LINE('',#1534,#316);
#235=LINE('',#1536,#317);
#236=LINE('',#1551,#318);
#237=LINE('',#1555,#319);
#238=LINE('',#1556,#320);
#239=LINE('',#1559,#321);
#240=LINE('',#1563,#322);
#241=LINE('',#1564,#323);
#242=LINE('',#1566,#324);
#243=LINE('',#1568,#325);
#244=LINE('',#1570,#326);
#245=LINE('',#1572,#327);
#246=LINE('',#1578,#328);
#247=LINE('',#1587,#329);
#248=LINE('',#1596,#330);
#249=LINE('',#1605,#331);
#250=LINE('',#1612,#332);
#251=LINE('',#1616,#333);
#252=LINE('',#1620,#334);
#253=LINE('',#1624,#335);
#254=LINE('',#1629,#336);
#255=LINE('',#1631,#337);
#256=LINE('',#1633,#338);
#257=LINE('',#1634,#339);
#258=LINE('',#1637,#340);
#259=LINE('',#1639,#341);
#260=LINE('',#1640,#342);
#261=LINE('',#1643,#343);
#262=LINE('',#1645,#344);
#263=LINE('',#1646,#345);
#264=LINE('',#1649,#346);
#265=LINE('',#1651,#347);
#266=LINE('',#1652,#348);
#267=LINE('',#1655,#349);
#268=LINE('',#1657,#350);
#269=LINE('',#1658,#351);
#270=LINE('',#1661,#352);
#271=LINE('',#1663,#353);
#272=LINE('',#1664,#354);
#273=LINE('',#1667,#355);
#274=LINE('',#1669,#356);
#275=LINE('',#1670,#357);
#276=LINE('',#1671,#358);
#277=LINE('',#1673,#359);
#278=LINE('',#1674,#360);
#279=LINE('',#1677,#361);
#280=LINE('',#1679,#362);
#281=LINE('',#1680,#363);
#282=LINE('',#1685,#364);
#283=LINE('',#1693,#365);
#284=LINE('',#1697,#366);
#285=LINE('',#1698,#367);
#286=LINE('',#1701,#368);
#287=LINE('',#1702,#369);
#288=LINE('',#1704,#370);
#289=VECTOR('',#1098,10.);
#290=VECTOR('',#1101,10.);
#291=VECTOR('',#1110,10.);
#292=VECTOR('',#1111,10.);
#293=VECTOR('',#1114,10.);
#294=VECTOR('',#1115,10.);
#295=VECTOR('',#1120,10.);
#296=VECTOR('',#1123,10.);
#297=VECTOR('',#1126,10.);
#298=VECTOR('',#1129,10.);
#299=VECTOR('',#1130,10.);
#300=VECTOR('',#1131,10.);
#301=VECTOR('',#1132,10.);
#302=VECTOR('',#1143,10.);
#303=VECTOR('',#1146,10.);
#304=VECTOR('',#1155,10.);
#305=VECTOR('',#1156,10.);
#306=VECTOR('',#1157,10.);
#307=VECTOR('',#1160,10.);
#308=VECTOR('',#1163,10.);
#309=VECTOR('',#1166,10.);
#310=VECTOR('',#1169,10.);
#311=VECTOR('',#1172,10.);
#312=VECTOR('',#1175,10.);
#313=VECTOR('',#1178,10.);
#314=VECTOR('',#1179,10.);
#315=VECTOR('',#1182,10.);
#316=VECTOR('',#1185,10.);
#317=VECTOR('',#1188,10.);
#318=VECTOR('',#1207,10.);
#319=VECTOR('',#1212,10.);
#320=VECTOR('',#1213,10.);
#321=VECTOR('',#1216,10.);
#322=VECTOR('',#1221,10.);
#323=VECTOR('',#1222,10.);
#324=VECTOR('',#1225,2.9);
#325=VECTOR('',#1228,2.9);
#326=VECTOR('',#1231,2.9);
#327=VECTOR('',#1234,2.9);
#328=VECTOR('',#1241,2.85);
#329=VECTOR('',#1252,2.85);
#330=VECTOR('',#1263,2.85);
#331=VECTOR('',#1274,2.85);
#332=VECTOR('',#1283,1.6);
#333=VECTOR('',#1288,1.6);
#334=VECTOR('',#1293,1.6);
#335=VECTOR('',#1298,1.6);
#336=VECTOR('',#1303,10.);
#337=VECTOR('',#1304,10.);
#338=VECTOR('',#1305,10.);
#339=VECTOR('',#1306,10.);
#340=VECTOR('',#1309,10.);
#341=VECTOR('',#1310,10.);
#342=VECTOR('',#1311,10.);
#343=VECTOR('',#1314,10.);
#344=VECTOR('',#1315,10.);
#345=VECTOR('',#1316,10.);
#346=VECTOR('',#1319,10.);
#347=VECTOR('',#1320,10.);
#348=VECTOR('',#1321,10.);
#349=VECTOR('',#1324,10.);
#350=VECTOR('',#1325,10.);
#351=VECTOR('',#1326,10.);
#352=VECTOR('',#1329,10.);
#353=VECTOR('',#1330,10.);
#354=VECTOR('',#1331,10.);
#355=VECTOR('',#1334,10.);
#356=VECTOR('',#1335,10.);
#357=VECTOR('',#1336,10.);
#358=VECTOR('',#1337,10.);
#359=VECTOR('',#1340,10.);
#360=VECTOR('',#1341,10.);
#361=VECTOR('',#1344,10.);
#362=VECTOR('',#1345,10.);
#363=VECTOR('',#1346,10.);
#364=VECTOR('',#1351,11.25);
#365=VECTOR('',#1362,2.75);
#366=VECTOR('',#1367,10.);
#367=VECTOR('',#1368,10.);
#368=VECTOR('',#1371,10.);
#369=VECTOR('',#1372,10.);
#370=VECTOR('',#1375,10.);
#371=CIRCLE('',#992,3.);
#372=CIRCLE('',#993,3.);
#373=CIRCLE('',#995,13.);
#374=CIRCLE('',#996,10.);
#375=CIRCLE('',#999,10.);
#376=CIRCLE('',#1001,2.);
#377=CIRCLE('',#1002,2.);
#378=CIRCLE('',#1003,3.);
#379=CIRCLE('',#1004,2.9);
#380=CIRCLE('',#1005,2.9);
#381=CIRCLE('',#1006,2.9);
#382=CIRCLE('',#1007,2.9);
#383=CIRCLE('',#1009,3.);
#384=CIRCLE('',#1011,10.);
#385=CIRCLE('',#1012,13.);
#386=CIRCLE('',#1015,10.);
#387=CIRCLE('',#1017,10.);
#388=CIRCLE('',#1019,10.);
#389=CIRCLE('',#1025,2.9);
#390=CIRCLE('',#1027,2.9);
#391=CIRCLE('',#1029,2.9);
#392=CIRCLE('',#1031,2.9);
#393=CIRCLE('',#1033,2.);
#394=CIRCLE('',#1036,2.);
#395=CIRCLE('',#1044,2.85);
#396=CIRCLE('',#1045,2.85);
#397=CIRCLE('',#1047,1.6);
#398=CIRCLE('',#1049,2.85);
#399=CIRCLE('',#1050,2.85);
#400=CIRCLE('',#1052,1.6);
#401=CIRCLE('',#1054,2.85);
#402=CIRCLE('',#1055,2.85);
#403=CIRCLE('',#1057,1.6);
#404=CIRCLE('',#1059,2.85);
#405=CIRCLE('',#1060,2.85);
#406=CIRCLE('',#1062,1.6);
#407=CIRCLE('',#1064,1.6);
#408=CIRCLE('',#1066,1.6);
#409=CIRCLE('',#1068,1.6);
#410=CIRCLE('',#1070,1.6);
#411=CIRCLE('',#1081,11.25);
#412=CIRCLE('',#1082,11.25);
#413=CIRCLE('',#1084,2.75);
#414=CIRCLE('',#1087,2.75);
#415=VERTEX_POINT('',#1380);
#416=VERTEX_POINT('',#1381);
#417=VERTEX_POINT('',#1383);
#418=VERTEX_POINT('',#1385);
#419=VERTEX_POINT('',#1389);
#420=VERTEX_POINT('',#1390);
#421=VERTEX_POINT('',#1404);
#422=VERTEX_POINT('',#1406);
#423=VERTEX_POINT('',#1421);
#424=VERTEX_POINT('',#1423);
#425=VERTEX_POINT('',#1427);
#426=VERTEX_POINT('',#1429);
#427=VERTEX_POINT('',#1431);
#428=VERTEX_POINT('',#1433);
#429=VERTEX_POINT('',#1435);
#430=VERTEX_POINT('',#1437);
#431=VERTEX_POINT('',#1439);
#432=VERTEX_POINT('',#1441);
#433=VERTEX_POINT('',#1443);
#434=VERTEX_POINT('',#1446);
#435=VERTEX_POINT('',#1448);
#436=VERTEX_POINT('',#1450);
#437=VERTEX_POINT('',#1452);
#438=VERTEX_POINT('',#1455);
#439=VERTEX_POINT('',#1457);
#440=VERTEX_POINT('',#1461);
#441=VERTEX_POINT('',#1462);
#442=VERTEX_POINT('',#1476);
#443=VERTEX_POINT('',#1478);
#444=VERTEX_POINT('',#1482);
#445=VERTEX_POINT('',#1484);
#446=VERTEX_POINT('',#1488);
#447=VERTEX_POINT('',#1489);
#448=VERTEX_POINT('',#1491);
#449=VERTEX_POINT('',#1502);
#450=VERTEX_POINT('',#1514);
#451=VERTEX_POINT('',#1516);
#452=VERTEX_POINT('',#1518);
#453=VERTEX_POINT('',#1538);
#454=VERTEX_POINT('',#1541);
#455=VERTEX_POINT('',#1544);
#456=VERTEX_POINT('',#1547);
#457=VERTEX_POINT('',#1550);
#458=VERTEX_POINT('',#1554);
#459=VERTEX_POINT('',#1558);
#460=VERTEX_POINT('',#1562);
#461=VERTEX_POINT('',#1575);
#462=VERTEX_POINT('',#1577);
#463=VERTEX_POINT('',#1581);
#464=VERTEX_POINT('',#1584);
#465=VERTEX_POINT('',#1586);
#466=VERTEX_POINT('',#1590);
#467=VERTEX_POINT('',#1593);
#468=VERTEX_POINT('',#1595);
#469=VERTEX_POINT('',#1599);
#470=VERTEX_POINT('',#1602);
#471=VERTEX_POINT('',#1604);
#472=VERTEX_POINT('',#1608);
#473=VERTEX_POINT('',#1611);
#474=VERTEX_POINT('',#1615);
#475=VERTEX_POINT('',#1619);
#476=VERTEX_POINT('',#1623);
#477=VERTEX_POINT('',#1627);
#478=VERTEX_POINT('',#1628);
#479=VERTEX_POINT('',#1630);
#480=VERTEX_POINT('',#1632);
#481=VERTEX_POINT('',#1636);
#482=VERTEX_POINT('',#1638);
#483=VERTEX_POINT('',#1642);
#484=VERTEX_POINT('',#1644);
#485=VERTEX_POINT('',#1648);
#486=VERTEX_POINT('',#1650);
#487=VERTEX_POINT('',#1654);
#488=VERTEX_POINT('',#1656);
#489=VERTEX_POINT('',#1660);
#490=VERTEX_POINT('',#1662);
#491=VERTEX_POINT('',#1666);
#492=VERTEX_POINT('',#1668);
#493=VERTEX_POINT('',#1676);
#494=VERTEX_POINT('',#1678);
#495=VERTEX_POINT('',#1682);
#496=VERTEX_POINT('',#1684);
#497=VERTEX_POINT('',#1688);
#498=VERTEX_POINT('',#1692);
#499=VERTEX_POINT('',#1696);
#500=VERTEX_POINT('',#1700);
#501=EDGE_CURVE('',#415,#416,#371,.T.);
#502=EDGE_CURVE('',#416,#417,#207,.T.);
#503=EDGE_CURVE('',#417,#418,#372,.T.);
#504=EDGE_CURVE('',#418,#415,#208,.T.);
#505=EDGE_CURVE('',#419,#420,#66,.T.);
#506=EDGE_CURVE('',#420,#418,#373,.T.);
#507=EDGE_CURVE('',#417,#419,#374,.T.);
#508=EDGE_CURVE('',#417,#421,#209,.T.);
#509=EDGE_CURVE('',#422,#421,#67,.F.);
#510=EDGE_CURVE('',#419,#422,#210,.T.);
#511=EDGE_CURVE('',#423,#416,#211,.T.);
#512=EDGE_CURVE('',#424,#423,#212,.T.);
#513=EDGE_CURVE('',#421,#424,#375,.T.);
#514=EDGE_CURVE('',#415,#425,#213,.T.);
#515=EDGE_CURVE('',#426,#425,#376,.T.);
#516=EDGE_CURVE('',#426,#427,#214,.T.);
#517=EDGE_CURVE('',#428,#427,#377,.T.);
#518=EDGE_CURVE('',#428,#429,#215,.T.);
#519=EDGE_CURVE('',#430,#429,#378,.T.);
#520=EDGE_CURVE('',#430,#431,#216,.T.);
#521=EDGE_CURVE('',#431,#432,#217,.T.);
#522=EDGE_CURVE('',#432,#433,#218,.T.);
#523=EDGE_CURVE('',#433,#423,#219,.T.);
#524=EDGE_CURVE('',#434,#434,#379,.T.);
#525=EDGE_CURVE('',#435,#435,#380,.T.);
#526=EDGE_CURVE('',#436,#436,#381,.T.);
#527=EDGE_CURVE('',#437,#437,#382,.T.);
#528=EDGE_CURVE('',#429,#438,#220,.T.);
#529=EDGE_CURVE('',#438,#439,#383,.T.);
#530=EDGE_CURVE('',#439,#430,#221,.T.);
#531=EDGE_CURVE('',#440,#441,#68,.T.);
#532=EDGE_CURVE('',#441,#439,#384,.T.);
#533=EDGE_CURVE('',#438,#440,#385,.T.);
#534=EDGE_CURVE('',#442,#428,#222,.T.);
#535=EDGE_CURVE('',#443,#442,#223,.T.);
#536=EDGE_CURVE('',#440,#443,#224,.T.);
#537=EDGE_CURVE('',#439,#444,#225,.T.);
#538=EDGE_CURVE('',#445,#444,#386,.T.);
#539=EDGE_CURVE('',#445,#431,#226,.T.);
#540=EDGE_CURVE('',#446,#447,#227,.T.);
#541=EDGE_CURVE('',#446,#448,#69,.T.);
#542=EDGE_CURVE('',#448,#449,#387,.T.);
#543=EDGE_CURVE('',#449,#445,#228,.T.);
#544=EDGE_CURVE('',#444,#447,#70,.T.);
#545=EDGE_CURVE('',#424,#450,#229,.T.);
#546=EDGE_CURVE('',#450,#451,#388,.T.);
#547=EDGE_CURVE('',#451,#452,#71,.T.);
#548=EDGE_CURVE('',#452,#422,#230,.T.);
#549=EDGE_CURVE('',#446,#452,#231,.T.);
#550=EDGE_CURVE('',#448,#451,#232,.T.);
#551=EDGE_CURVE('',#447,#441,#233,.T.);
#552=EDGE_CURVE('',#449,#432,#234,.T.);
#553=EDGE_CURVE('',#450,#433,#235,.T.);
#554=EDGE_CURVE('',#453,#453,#389,.T.);
#555=EDGE_CURVE('',#454,#454,#390,.T.);
#556=EDGE_CURVE('',#455,#455,#391,.T.);
#557=EDGE_CURVE('',#456,#456,#392,.T.);
#558=EDGE_CURVE('',#427,#457,#236,.T.);
#559=EDGE_CURVE('',#457,#442,#393,.T.);
#560=EDGE_CURVE('',#458,#426,#237,.T.);
#561=EDGE_CURVE('',#457,#458,#238,.T.);
#562=EDGE_CURVE('',#425,#459,#239,.T.);
#563=EDGE_CURVE('',#459,#458,#394,.T.);
#564=EDGE_CURVE('',#460,#420,#240,.T.);
#565=EDGE_CURVE('',#459,#460,#241,.T.);
#566=EDGE_CURVE('',#437,#456,#242,.T.);
#567=EDGE_CURVE('',#436,#453,#243,.T.);
#568=EDGE_CURVE('',#435,#454,#244,.T.);
#569=EDGE_CURVE('',#434,#455,#245,.T.);
#570=EDGE_CURVE('',#461,#461,#395,.T.);
#571=EDGE_CURVE('',#461,#462,#246,.T.);
#572=EDGE_CURVE('',#462,#462,#396,.T.);
#573=EDGE_CURVE('',#463,#463,#397,.T.);
#574=EDGE_CURVE('',#464,#464,#398,.T.);
#575=EDGE_CURVE('',#464,#465,#247,.T.);
#576=EDGE_CURVE('',#465,#465,#399,.T.);
#577=EDGE_CURVE('',#466,#466,#400,.T.);
#578=EDGE_CURVE('',#467,#467,#401,.T.);
#579=EDGE_CURVE('',#467,#468,#248,.T.);
#580=EDGE_CURVE('',#468,#468,#402,.T.);
#581=EDGE_CURVE('',#469,#469,#403,.T.);
#582=EDGE_CURVE('',#470,#470,#404,.T.);
#583=EDGE_CURVE('',#470,#471,#249,.T.);
#584=EDGE_CURVE('',#471,#471,#405,.T.);
#585=EDGE_CURVE('',#472,#472,#406,.T.);
#586=EDGE_CURVE('',#466,#473,#250,.T.);
#587=EDGE_CURVE('',#473,#473,#407,.T.);
#588=EDGE_CURVE('',#472,#474,#251,.T.);
#589=EDGE_CURVE('',#474,#474,#408,.T.);
#590=EDGE_CURVE('',#463,#475,#252,.T.);
#591=EDGE_CURVE('',#475,#475,#409,.T.);
#592=EDGE_CURVE('',#469,#476,#253,.T.);
#593=EDGE_CURVE('',#476,#476,#410,.T.);
#594=EDGE_CURVE('',#477,#478,#254,.T.);
#595=EDGE_CURVE('',#477,#479,#255,.T.);
#596=EDGE_CURVE('',#480,#479,#256,.T.);
#597=EDGE_CURVE('',#478,#480,#257,.T.);
#598=EDGE_CURVE('',#478,#481,#258,.T.);
#599=EDGE_CURVE('',#482,#480,#259,.T.);
#600=EDGE_CURVE('',#481,#482,#260,.T.);
#601=EDGE_CURVE('',#481,#483,#261,.T.);
#602=EDGE_CURVE('',#484,#482,#262,.T.);
#603=EDGE_CURVE('',#483,#484,#263,.T.);
#604=EDGE_CURVE('',#483,#485,#264,.T.);
#605=EDGE_CURVE('',#486,#484,#265,.T.);
#606=EDGE_CURVE('',#485,#486,#266,.T.);
#607=EDGE_CURVE('',#485,#487,#267,.T.);
#608=EDGE_CURVE('',#488,#486,#268,.T.);
#609=EDGE_CURVE('',#487,#488,#269,.T.);
#610=EDGE_CURVE('',#487,#489,#270,.T.);
#611=EDGE_CURVE('',#490,#488,#271,.T.);
#612=EDGE_CURVE('',#489,#490,#272,.T.);
#613=EDGE_CURVE('',#491,#460,#273,.T.);
#614=EDGE_CURVE('',#492,#491,#274,.T.);
#615=EDGE_CURVE('',#489,#492,#275,.T.);
#616=EDGE_CURVE('',#443,#490,#276,.T.);
#617=EDGE_CURVE('',#492,#477,#277,.T.);
#618=EDGE_CURVE('',#479,#491,#278,.T.);
#619=EDGE_CURVE('',#422,#493,#279,.T.);
#620=EDGE_CURVE('',#493,#494,#280,.T.);
#621=EDGE_CURVE('',#494,#447,#281,.T.);
#622=EDGE_CURVE('',#495,#495,#411,.T.);
#623=EDGE_CURVE('',#495,#496,#282,.T.);
#624=EDGE_CURVE('',#496,#496,#412,.T.);
#625=EDGE_CURVE('',#497,#497,#413,.T.);
#626=EDGE_CURVE('',#497,#498,#283,.T.);
#627=EDGE_CURVE('',#498,#498,#414,.T.);
#628=EDGE_CURVE('',#452,#499,#284,.T.);
#629=EDGE_CURVE('',#499,#493,#285,.T.);
#630=EDGE_CURVE('',#500,#446,#286,.T.);
#631=EDGE_CURVE('',#500,#494,#287,.T.);
#632=EDGE_CURVE('',#499,#500,#288,.T.);
#633=ORIENTED_EDGE('',*,*,#501,.T.);
#634=ORIENTED_EDGE('',*,*,#502,.T.);
#635=ORIENTED_EDGE('',*,*,#503,.T.);
#636=ORIENTED_EDGE('',*,*,#504,.T.);
#637=ORIENTED_EDGE('',*,*,#505,.T.);
#638=ORIENTED_EDGE('',*,*,#506,.T.);
#639=ORIENTED_EDGE('',*,*,#503,.F.);
#640=ORIENTED_EDGE('',*,*,#507,.T.);
#641=ORIENTED_EDGE('',*,*,#507,.F.);
#642=ORIENTED_EDGE('',*,*,#508,.T.);
#643=ORIENTED_EDGE('',*,*,#509,.F.);
#644=ORIENTED_EDGE('',*,*,#510,.F.);
#645=ORIENTED_EDGE('',*,*,#502,.F.);
#646=ORIENTED_EDGE('',*,*,#511,.F.);
#647=ORIENTED_EDGE('',*,*,#512,.F.);
#648=ORIENTED_EDGE('',*,*,#513,.F.);
#649=ORIENTED_EDGE('',*,*,#508,.F.);
#650=ORIENTED_EDGE('',*,*,#501,.F.);
#651=ORIENTED_EDGE('',*,*,#514,.T.);
#652=ORIENTED_EDGE('',*,*,#515,.F.);
#653=ORIENTED_EDGE('',*,*,#516,.T.);
#654=ORIENTED_EDGE('',*,*,#517,.F.);
#655=ORIENTED_EDGE('',*,*,#518,.T.);
#656=ORIENTED_EDGE('',*,*,#519,.F.);
#657=ORIENTED_EDGE('',*,*,#520,.T.);
#658=ORIENTED_EDGE('',*,*,#521,.T.);
#659=ORIENTED_EDGE('',*,*,#522,.T.);
#660=ORIENTED_EDGE('',*,*,#523,.T.);
#661=ORIENTED_EDGE('',*,*,#511,.T.);
#662=ORIENTED_EDGE('',*,*,#524,.T.);
#663=ORIENTED_EDGE('',*,*,#525,.T.);
#664=ORIENTED_EDGE('',*,*,#526,.T.);
#665=ORIENTED_EDGE('',*,*,#527,.T.);
#666=ORIENTED_EDGE('',*,*,#519,.T.);
#667=ORIENTED_EDGE('',*,*,#528,.T.);
#668=ORIENTED_EDGE('',*,*,#529,.T.);
#669=ORIENTED_EDGE('',*,*,#530,.T.);
#670=ORIENTED_EDGE('',*,*,#531,.T.);
#671=ORIENTED_EDGE('',*,*,#532,.T.);
#672=ORIENTED_EDGE('',*,*,#529,.F.);
#673=ORIENTED_EDGE('',*,*,#533,.T.);
#674=ORIENTED_EDGE('',*,*,#533,.F.);
#675=ORIENTED_EDGE('',*,*,#528,.F.);
#676=ORIENTED_EDGE('',*,*,#518,.F.);
#677=ORIENTED_EDGE('',*,*,#534,.F.);
#678=ORIENTED_EDGE('',*,*,#535,.F.);
#679=ORIENTED_EDGE('',*,*,#536,.F.);
#680=ORIENTED_EDGE('',*,*,#530,.F.);
#681=ORIENTED_EDGE('',*,*,#537,.T.);
#682=ORIENTED_EDGE('',*,*,#538,.F.);
#683=ORIENTED_EDGE('',*,*,#539,.T.);
#684=ORIENTED_EDGE('',*,*,#520,.F.);
#685=ORIENTED_EDGE('',*,*,#540,.F.);
#686=ORIENTED_EDGE('',*,*,#541,.T.);
#687=ORIENTED_EDGE('',*,*,#542,.T.);
#688=ORIENTED_EDGE('',*,*,#543,.T.);
#689=ORIENTED_EDGE('',*,*,#538,.T.);
#690=ORIENTED_EDGE('',*,*,#544,.T.);
#691=ORIENTED_EDGE('',*,*,#513,.T.);
#692=ORIENTED_EDGE('',*,*,#545,.T.);
#693=ORIENTED_EDGE('',*,*,#546,.T.);
#694=ORIENTED_EDGE('',*,*,#547,.T.);
#695=ORIENTED_EDGE('',*,*,#548,.T.);
#696=ORIENTED_EDGE('',*,*,#509,.T.);
#697=ORIENTED_EDGE('',*,*,#549,.T.);
#698=ORIENTED_EDGE('',*,*,#547,.F.);
#699=ORIENTED_EDGE('',*,*,#550,.F.);
#700=ORIENTED_EDGE('',*,*,#541,.F.);
#701=ORIENTED_EDGE('',*,*,#532,.F.);
#702=ORIENTED_EDGE('',*,*,#551,.F.);
#703=ORIENTED_EDGE('',*,*,#544,.F.);
#704=ORIENTED_EDGE('',*,*,#537,.F.);
#705=ORIENTED_EDGE('',*,*,#543,.F.);
#706=ORIENTED_EDGE('',*,*,#552,.T.);
#707=ORIENTED_EDGE('',*,*,#521,.F.);
#708=ORIENTED_EDGE('',*,*,#539,.F.);
#709=ORIENTED_EDGE('',*,*,#550,.T.);
#710=ORIENTED_EDGE('',*,*,#546,.F.);
#711=ORIENTED_EDGE('',*,*,#553,.T.);
#712=ORIENTED_EDGE('',*,*,#522,.F.);
#713=ORIENTED_EDGE('',*,*,#552,.F.);
#714=ORIENTED_EDGE('',*,*,#542,.F.);
#715=ORIENTED_EDGE('',*,*,#554,.F.);
#716=ORIENTED_EDGE('',*,*,#555,.F.);
#717=ORIENTED_EDGE('',*,*,#556,.F.);
#718=ORIENTED_EDGE('',*,*,#557,.F.);
#719=ORIENTED_EDGE('',*,*,#517,.T.);
#720=ORIENTED_EDGE('',*,*,#558,.T.);
#721=ORIENTED_EDGE('',*,*,#559,.T.);
#722=ORIENTED_EDGE('',*,*,#534,.T.);
#723=ORIENTED_EDGE('',*,*,#558,.F.);
#724=ORIENTED_EDGE('',*,*,#516,.F.);
#725=ORIENTED_EDGE('',*,*,#560,.F.);
#726=ORIENTED_EDGE('',*,*,#561,.F.);
#727=ORIENTED_EDGE('',*,*,#515,.T.);
#728=ORIENTED_EDGE('',*,*,#562,.T.);
#729=ORIENTED_EDGE('',*,*,#563,.T.);
#730=ORIENTED_EDGE('',*,*,#560,.T.);
#731=ORIENTED_EDGE('',*,*,#506,.F.);
#732=ORIENTED_EDGE('',*,*,#564,.F.);
#733=ORIENTED_EDGE('',*,*,#565,.F.);
#734=ORIENTED_EDGE('',*,*,#562,.F.);
#735=ORIENTED_EDGE('',*,*,#514,.F.);
#736=ORIENTED_EDGE('',*,*,#504,.F.);
#737=ORIENTED_EDGE('',*,*,#527,.F.);
#738=ORIENTED_EDGE('',*,*,#566,.T.);
#739=ORIENTED_EDGE('',*,*,#557,.T.);
#740=ORIENTED_EDGE('',*,*,#566,.F.);
#741=ORIENTED_EDGE('',*,*,#526,.F.);
#742=ORIENTED_EDGE('',*,*,#567,.T.);
#743=ORIENTED_EDGE('',*,*,#554,.T.);
#744=ORIENTED_EDGE('',*,*,#567,.F.);
#745=ORIENTED_EDGE('',*,*,#525,.F.);
#746=ORIENTED_EDGE('',*,*,#568,.T.);
#747=ORIENTED_EDGE('',*,*,#555,.T.);
#748=ORIENTED_EDGE('',*,*,#568,.F.);
#749=ORIENTED_EDGE('',*,*,#524,.F.);
#750=ORIENTED_EDGE('',*,*,#569,.T.);
#751=ORIENTED_EDGE('',*,*,#556,.T.);
#752=ORIENTED_EDGE('',*,*,#569,.F.);
#753=ORIENTED_EDGE('',*,*,#545,.F.);
#754=ORIENTED_EDGE('',*,*,#512,.T.);
#755=ORIENTED_EDGE('',*,*,#523,.F.);
#756=ORIENTED_EDGE('',*,*,#553,.F.);
#757=ORIENTED_EDGE('',*,*,#570,.F.);
#758=ORIENTED_EDGE('',*,*,#571,.T.);
#759=ORIENTED_EDGE('',*,*,#572,.T.);
#760=ORIENTED_EDGE('',*,*,#571,.F.);
#761=ORIENTED_EDGE('',*,*,#572,.F.);
#762=ORIENTED_EDGE('',*,*,#573,.F.);
#763=ORIENTED_EDGE('',*,*,#574,.F.);
#764=ORIENTED_EDGE('',*,*,#575,.T.);
#765=ORIENTED_EDGE('',*,*,#576,.T.);
#766=ORIENTED_EDGE('',*,*,#575,.F.);
#767=ORIENTED_EDGE('',*,*,#576,.F.);
#768=ORIENTED_EDGE('',*,*,#577,.F.);
#769=ORIENTED_EDGE('',*,*,#578,.F.);
#770=ORIENTED_EDGE('',*,*,#579,.T.);
#771=ORIENTED_EDGE('',*,*,#580,.T.);
#772=ORIENTED_EDGE('',*,*,#579,.F.);
#773=ORIENTED_EDGE('',*,*,#580,.F.);
#774=ORIENTED_EDGE('',*,*,#581,.F.);
#775=ORIENTED_EDGE('',*,*,#582,.F.);
#776=ORIENTED_EDGE('',*,*,#583,.T.);
#777=ORIENTED_EDGE('',*,*,#584,.T.);
#778=ORIENTED_EDGE('',*,*,#583,.F.);
#779=ORIENTED_EDGE('',*,*,#584,.F.);
#780=ORIENTED_EDGE('',*,*,#585,.F.);
#781=ORIENTED_EDGE('',*,*,#577,.T.);
#782=ORIENTED_EDGE('',*,*,#586,.T.);
#783=ORIENTED_EDGE('',*,*,#587,.F.);
#784=ORIENTED_EDGE('',*,*,#586,.F.);
#785=ORIENTED_EDGE('',*,*,#585,.T.);
#786=ORIENTED_EDGE('',*,*,#588,.T.);
#787=ORIENTED_EDGE('',*,*,#589,.F.);
#788=ORIENTED_EDGE('',*,*,#588,.F.);
#789=ORIENTED_EDGE('',*,*,#573,.T.);
#790=ORIENTED_EDGE('',*,*,#590,.T.);
#791=ORIENTED_EDGE('',*,*,#591,.F.);
#792=ORIENTED_EDGE('',*,*,#590,.F.);
#793=ORIENTED_EDGE('',*,*,#581,.T.);
#794=ORIENTED_EDGE('',*,*,#592,.T.);
#795=ORIENTED_EDGE('',*,*,#593,.F.);
#796=ORIENTED_EDGE('',*,*,#592,.F.);
#797=ORIENTED_EDGE('',*,*,#594,.F.);
#798=ORIENTED_EDGE('',*,*,#595,.T.);
#799=ORIENTED_EDGE('',*,*,#596,.F.);
#800=ORIENTED_EDGE('',*,*,#597,.F.);
#801=ORIENTED_EDGE('',*,*,#598,.F.);
#802=ORIENTED_EDGE('',*,*,#597,.T.);
#803=ORIENTED_EDGE('',*,*,#599,.F.);
#804=ORIENTED_EDGE('',*,*,#600,.F.);
#805=ORIENTED_EDGE('',*,*,#601,.F.);
#806=ORIENTED_EDGE('',*,*,#600,.T.);
#807=ORIENTED_EDGE('',*,*,#602,.F.);
#808=ORIENTED_EDGE('',*,*,#603,.F.);
#809=ORIENTED_EDGE('',*,*,#604,.F.);
#810=ORIENTED_EDGE('',*,*,#603,.T.);
#811=ORIENTED_EDGE('',*,*,#605,.F.);
#812=ORIENTED_EDGE('',*,*,#606,.F.);
#813=ORIENTED_EDGE('',*,*,#607,.F.);
#814=ORIENTED_EDGE('',*,*,#606,.T.);
#815=ORIENTED_EDGE('',*,*,#608,.F.);
#816=ORIENTED_EDGE('',*,*,#609,.F.);
#817=ORIENTED_EDGE('',*,*,#610,.F.);
#818=ORIENTED_EDGE('',*,*,#609,.T.);
#819=ORIENTED_EDGE('',*,*,#611,.F.);
#820=ORIENTED_EDGE('',*,*,#612,.F.);
#821=ORIENTED_EDGE('',*,*,#535,.T.);
#822=ORIENTED_EDGE('',*,*,#559,.F.);
#823=ORIENTED_EDGE('',*,*,#561,.T.);
#824=ORIENTED_EDGE('',*,*,#563,.F.);
#825=ORIENTED_EDGE('',*,*,#565,.T.);
#826=ORIENTED_EDGE('',*,*,#613,.F.);
#827=ORIENTED_EDGE('',*,*,#614,.F.);
#828=ORIENTED_EDGE('',*,*,#615,.F.);
#829=ORIENTED_EDGE('',*,*,#612,.T.);
#830=ORIENTED_EDGE('',*,*,#616,.F.);
#831=ORIENTED_EDGE('',*,*,#617,.F.);
#832=ORIENTED_EDGE('',*,*,#614,.T.);
#833=ORIENTED_EDGE('',*,*,#618,.F.);
#834=ORIENTED_EDGE('',*,*,#595,.F.);
#835=ORIENTED_EDGE('',*,*,#505,.F.);
#836=ORIENTED_EDGE('',*,*,#510,.T.);
#837=ORIENTED_EDGE('',*,*,#619,.T.);
#838=ORIENTED_EDGE('',*,*,#620,.T.);
#839=ORIENTED_EDGE('',*,*,#621,.T.);
#840=ORIENTED_EDGE('',*,*,#551,.T.);
#841=ORIENTED_EDGE('',*,*,#531,.F.);
#842=ORIENTED_EDGE('',*,*,#536,.T.);
#843=ORIENTED_EDGE('',*,*,#616,.T.);
#844=ORIENTED_EDGE('',*,*,#611,.T.);
#845=ORIENTED_EDGE('',*,*,#608,.T.);
#846=ORIENTED_EDGE('',*,*,#605,.T.);
#847=ORIENTED_EDGE('',*,*,#602,.T.);
#848=ORIENTED_EDGE('',*,*,#599,.T.);
#849=ORIENTED_EDGE('',*,*,#596,.T.);
#850=ORIENTED_EDGE('',*,*,#618,.T.);
#851=ORIENTED_EDGE('',*,*,#613,.T.);
#852=ORIENTED_EDGE('',*,*,#564,.T.);
#853=ORIENTED_EDGE('',*,*,#622,.F.);
#854=ORIENTED_EDGE('',*,*,#623,.T.);
#855=ORIENTED_EDGE('',*,*,#624,.T.);
#856=ORIENTED_EDGE('',*,*,#623,.F.);
#857=ORIENTED_EDGE('',*,*,#624,.F.);
#858=ORIENTED_EDGE('',*,*,#625,.F.);
#859=ORIENTED_EDGE('',*,*,#594,.T.);
#860=ORIENTED_EDGE('',*,*,#598,.T.);
#861=ORIENTED_EDGE('',*,*,#601,.T.);
#862=ORIENTED_EDGE('',*,*,#604,.T.);
#863=ORIENTED_EDGE('',*,*,#607,.T.);
#864=ORIENTED_EDGE('',*,*,#610,.T.);
#865=ORIENTED_EDGE('',*,*,#615,.T.);
#866=ORIENTED_EDGE('',*,*,#617,.T.);
#867=ORIENTED_EDGE('',*,*,#587,.T.);
#868=ORIENTED_EDGE('',*,*,#589,.T.);
#869=ORIENTED_EDGE('',*,*,#591,.T.);
#870=ORIENTED_EDGE('',*,*,#593,.T.);
#871=ORIENTED_EDGE('',*,*,#622,.T.);
#872=ORIENTED_EDGE('',*,*,#625,.T.);
#873=ORIENTED_EDGE('',*,*,#626,.T.);
#874=ORIENTED_EDGE('',*,*,#627,.F.);
#875=ORIENTED_EDGE('',*,*,#626,.F.);
#876=ORIENTED_EDGE('',*,*,#628,.T.);
#877=ORIENTED_EDGE('',*,*,#629,.T.);
#878=ORIENTED_EDGE('',*,*,#619,.F.);
#879=ORIENTED_EDGE('',*,*,#548,.F.);
#880=ORIENTED_EDGE('',*,*,#630,.T.);
#881=ORIENTED_EDGE('',*,*,#540,.T.);
#882=ORIENTED_EDGE('',*,*,#621,.F.);
#883=ORIENTED_EDGE('',*,*,#631,.F.);
#884=ORIENTED_EDGE('',*,*,#632,.T.);
#885=ORIENTED_EDGE('',*,*,#631,.T.);
#886=ORIENTED_EDGE('',*,*,#620,.F.);
#887=ORIENTED_EDGE('',*,*,#629,.F.);
#888=ORIENTED_EDGE('',*,*,#632,.F.);
#889=ORIENTED_EDGE('',*,*,#628,.F.);
#890=ORIENTED_EDGE('',*,*,#549,.F.);
#891=ORIENTED_EDGE('',*,*,#630,.F.);
#892=ORIENTED_EDGE('',*,*,#570,.T.);
#893=ORIENTED_EDGE('',*,*,#574,.T.);
#894=ORIENTED_EDGE('',*,*,#578,.T.);
#895=ORIENTED_EDGE('',*,*,#582,.T.);
#896=ORIENTED_EDGE('',*,*,#627,.T.);
#897=CYLINDRICAL_SURFACE('',#991,3.);
#898=CYLINDRICAL_SURFACE('',#997,10.);
#899=CYLINDRICAL_SURFACE('',#1008,3.);
#900=CYLINDRICAL_SURFACE('',#1016,10.);
#901=CYLINDRICAL_SURFACE('',#1018,10.);
#902=CYLINDRICAL_SURFACE('',#1020,10.);
#903=CYLINDRICAL_SURFACE('',#1021,10.);
#904=CYLINDRICAL_SURFACE('',#1032,2.);
#905=CYLINDRICAL_SURFACE('',#1035,2.);
#906=CYLINDRICAL_SURFACE('',#1038,2.9);
#907=CYLINDRICAL_SURFACE('',#1039,2.9);
#908=CYLINDRICAL_SURFACE('',#1040,2.9);
#909=CYLINDRICAL_SURFACE('',#1041,2.9);
#910=CYLINDRICAL_SURFACE('',#1043,2.85);
#911=CYLINDRICAL_SURFACE('',#1048,2.85);
#912=CYLINDRICAL_SURFACE('',#1053,2.85);
#913=CYLINDRICAL_SURFACE('',#1058,2.85);
#914=CYLINDRICAL_SURFACE('',#1063,1.6);
#915=CYLINDRICAL_SURFACE('',#1065,1.6);
#916=CYLINDRICAL_SURFACE('',#1067,1.6);
#917=CYLINDRICAL_SURFACE('',#1069,1.6);
#918=CYLINDRICAL_SURFACE('',#1080,11.25);
#919=CYLINDRICAL_SURFACE('',#1086,2.75);
#920=ADVANCED_FACE('',(#74),#897,.T.);
#921=ADVANCED_FACE('',(#75),#72,.T.);
#922=ADVANCED_FACE('',(#76),#898,.F.);
#923=ADVANCED_FACE('',(#77),#34,.T.);
#924=ADVANCED_FACE('',(#78,#15,#16,#17,#18),#35,.T.);
#925=ADVANCED_FACE('',(#79),#899,.T.);
#926=ADVANCED_FACE('',(#80),#73,.T.);
#927=ADVANCED_FACE('',(#81),#36,.F.);
#928=ADVANCED_FACE('',(#82),#37,.T.);
#929=ADVANCED_FACE('',(#83),#900,.F.);
#930=ADVANCED_FACE('',(#84),#901,.F.);
#931=ADVANCED_FACE('',(#85),#902,.F.);
#932=ADVANCED_FACE('',(#86),#903,.F.);
#933=ADVANCED_FACE('',(#87),#38,.T.);
#934=ADVANCED_FACE('',(#88),#39,.T.);
#935=ADVANCED_FACE('',(#89),#40,.T.);
#936=ADVANCED_FACE('',(#90),#41,.T.);
#937=ADVANCED_FACE('',(#91),#42,.T.);
#938=ADVANCED_FACE('',(#92),#43,.T.);
#939=ADVANCED_FACE('',(#93),#904,.F.);
#940=ADVANCED_FACE('',(#94),#44,.F.);
#941=ADVANCED_FACE('',(#95),#905,.F.);
#942=ADVANCED_FACE('',(#96),#45,.F.);
#943=ADVANCED_FACE('',(#97),#906,.F.);
#944=ADVANCED_FACE('',(#98),#907,.F.);
#945=ADVANCED_FACE('',(#99),#908,.F.);
#946=ADVANCED_FACE('',(#100),#909,.F.);
#947=ADVANCED_FACE('',(#101),#46,.T.);
#948=ADVANCED_FACE('',(#102),#910,.F.);
#949=ADVANCED_FACE('',(#103,#19),#47,.T.);
#950=ADVANCED_FACE('',(#104),#911,.F.);
#951=ADVANCED_FACE('',(#105,#20),#48,.T.);
#952=ADVANCED_FACE('',(#106),#912,.F.);
#953=ADVANCED_FACE('',(#107,#21),#49,.T.);
#954=ADVANCED_FACE('',(#108),#913,.F.);
#955=ADVANCED_FACE('',(#109,#22),#50,.T.);
#956=ADVANCED_FACE('',(#110),#914,.F.);
#957=ADVANCED_FACE('',(#111),#915,.F.);
#958=ADVANCED_FACE('',(#112),#916,.F.);
#959=ADVANCED_FACE('',(#113),#917,.F.);
#960=ADVANCED_FACE('',(#114),#51,.T.);
#961=ADVANCED_FACE('',(#115),#52,.T.);
#962=ADVANCED_FACE('',(#116),#53,.T.);
#963=ADVANCED_FACE('',(#117),#54,.T.);
#964=ADVANCED_FACE('',(#118),#55,.T.);
#965=ADVANCED_FACE('',(#119),#56,.T.);
#966=ADVANCED_FACE('',(#120),#57,.T.);
#967=ADVANCED_FACE('',(#121),#58,.T.);
#968=ADVANCED_FACE('',(#122),#59,.T.);
#969=ADVANCED_FACE('',(#123),#918,.F.);
#970=ADVANCED_FACE('',(#124,#23),#60,.T.);
#971=ADVANCED_FACE('',(#125,#24,#25,#26,#27,#28),#61,.F.);
#972=ADVANCED_FACE('',(#126),#919,.F.);
#973=ADVANCED_FACE('',(#127),#62,.T.);
#974=ADVANCED_FACE('',(#128),#63,.T.);
#975=ADVANCED_FACE('',(#129),#64,.T.);
#976=ADVANCED_FACE('',(#130,#29,#30,#31,#32,#33),#65,.T.);
#977=CLOSED_SHELL('',(#920,#921,#922,#923,#924,#925,#926,#927,#928,#929,
#930,#931,#932,#933,#934,#935,#936,#937,#938,#939,#940,#941,#942,#943,#944,
#945,#946,#947,#948,#949,#950,#951,#952,#953,#954,#955,#956,#957,#958,#959,
#960,#961,#962,#963,#964,#965,#966,#967,#968,#969,#970,#971,#972,#973,#974,
#975,#976));
#978=DERIVED_UNIT_ELEMENT(#980,1.);
#979=DERIVED_UNIT_ELEMENT(#1711,-3.);
#980=(
MASS_UNIT()
NAMED_UNIT(*)
SI_UNIT(.KILO.,.GRAM.)
);
#981=DERIVED_UNIT((#978,#979));
#982=MEASURE_REPRESENTATION_ITEM('density measure',
POSITIVE_RATIO_MEASURE(7850.),#981);
#983=PROPERTY_DEFINITION_REPRESENTATION(#988,#985);
#984=PROPERTY_DEFINITION_REPRESENTATION(#989,#986);
#985=REPRESENTATION('material name',(#987),#1708);
#986=REPRESENTATION('density',(#982),#1708);
#987=DESCRIPTIVE_REPRESENTATION_ITEM('Steel','Steel');
#988=PROPERTY_DEFINITION('material property','material name',#1718);
#989=PROPERTY_DEFINITION('material property','density of part',#1718);
#990=AXIS2_PLACEMENT_3D('',#1378,#1092,#1093);
#991=AXIS2_PLACEMENT_3D('',#1379,#1094,#1095);
#992=AXIS2_PLACEMENT_3D('',#1382,#1096,#1097);
#993=AXIS2_PLACEMENT_3D('',#1386,#1099,#1100);
#994=AXIS2_PLACEMENT_3D('',#1388,#1102,#1103);
#995=AXIS2_PLACEMENT_3D('',#1401,#1104,#1105);
#996=AXIS2_PLACEMENT_3D('',#1402,#1106,#1107);
#997=AXIS2_PLACEMENT_3D('',#1403,#1108,#1109);
#998=AXIS2_PLACEMENT_3D('',#1420,#1112,#1113);
#999=AXIS2_PLACEMENT_3D('',#1425,#1116,#1117);
#1000=AXIS2_PLACEMENT_3D('',#1426,#1118,#1119);
#1001=AXIS2_PLACEMENT_3D('',#1430,#1121,#1122);
#1002=AXIS2_PLACEMENT_3D('',#1434,#1124,#1125);
#1003=AXIS2_PLACEMENT_3D('',#1438,#1127,#1128);
#1004=AXIS2_PLACEMENT_3D('',#1447,#1133,#1134);
#1005=AXIS2_PLACEMENT_3D('',#1449,#1135,#1136);
#1006=AXIS2_PLACEMENT_3D('',#1451,#1137,#1138);
#1007=AXIS2_PLACEMENT_3D('',#1453,#1139,#1140);
#1008=AXIS2_PLACEMENT_3D('',#1454,#1141,#1142);
#1009=AXIS2_PLACEMENT_3D('',#1458,#1144,#1145);
#1010=AXIS2_PLACEMENT_3D('',#1460,#1147,#1148);
#1011=AXIS2_PLACEMENT_3D('',#1473,#1149,#1150);
#1012=AXIS2_PLACEMENT_3D('',#1474,#1151,#1152);
#1013=AXIS2_PLACEMENT_3D('',#1475,#1153,#1154);
#1014=AXIS2_PLACEMENT_3D('',#1481,#1158,#1159);
#1015=AXIS2_PLACEMENT_3D('',#1485,#1161,#1162);
#1016=AXIS2_PLACEMENT_3D('',#1487,#1164,#1165);
#1017=AXIS2_PLACEMENT_3D('',#1503,#1167,#1168);
#1018=AXIS2_PLACEMENT_3D('',#1513,#1170,#1171);
#1019=AXIS2_PLACEMENT_3D('',#1517,#1173,#1174);
#1020=AXIS2_PLACEMENT_3D('',#1528,#1176,#1177);
#1021=AXIS2_PLACEMENT_3D('',#1531,#1180,#1181);
#1022=AXIS2_PLACEMENT_3D('',#1533,#1183,#1184);
#1023=AXIS2_PLACEMENT_3D('',#1535,#1186,#1187);
#1024=AXIS2_PLACEMENT_3D('',#1537,#1189,#1190);
#1025=AXIS2_PLACEMENT_3D('',#1539,#1191,#1192);
#1026=AXIS2_PLACEMENT_3D('',#1540,#1193,#1194);
#1027=AXIS2_PLACEMENT_3D('',#1542,#1195,#1196);
#1028=AXIS2_PLACEMENT_3D('',#1543,#1197,#1198);
#1029=AXIS2_PLACEMENT_3D('',#1545,#1199,#1200);
#1030=AXIS2_PLACEMENT_3D('',#1546,#1201,#1202);
#1031=AXIS2_PLACEMENT_3D('',#1548,#1203,#1204);
#1032=AXIS2_PLACEMENT_3D('',#1549,#1205,#1206);
#1033=AXIS2_PLACEMENT_3D('',#1552,#1208,#1209);
#1034=AXIS2_PLACEMENT_3D('',#1553,#1210,#1211);
#1035=AXIS2_PLACEMENT_3D('',#1557,#1214,#1215);
#1036=AXIS2_PLACEMENT_3D('',#1560,#1217,#1218);
#1037=AXIS2_PLACEMENT_3D('',#1561,#1219,#1220);
#1038=AXIS2_PLACEMENT_3D('',#1565,#1223,#1224);
#1039=AXIS2_PLACEMENT_3D('',#1567,#1226,#1227);
#1040=AXIS2_PLACEMENT_3D('',#1569,#1229,#1230);
#1041=AXIS2_PLACEMENT_3D('',#1571,#1232,#1233);
#1042=AXIS2_PLACEMENT_3D('',#1573,#1235,#1236);
#1043=AXIS2_PLACEMENT_3D('',#1574,#1237,#1238);
#1044=AXIS2_PLACEMENT_3D('',#1576,#1239,#1240);
#1045=AXIS2_PLACEMENT_3D('',#1579,#1242,#1243);
#1046=AXIS2_PLACEMENT_3D('',#1580,#1244,#1245);
#1047=AXIS2_PLACEMENT_3D('',#1582,#1246,#1247);
#1048=AXIS2_PLACEMENT_3D('',#1583,#1248,#1249);
#1049=AXIS2_PLACEMENT_3D('',#1585,#1250,#1251);
#1050=AXIS2_PLACEMENT_3D('',#1588,#1253,#1254);
#1051=AXIS2_PLACEMENT_3D('',#1589,#1255,#1256);
#1052=AXIS2_PLACEMENT_3D('',#1591,#1257,#1258);
#1053=AXIS2_PLACEMENT_3D('',#1592,#1259,#1260);
#1054=AXIS2_PLACEMENT_3D('',#1594,#1261,#1262);
#1055=AXIS2_PLACEMENT_3D('',#1597,#1264,#1265);
#1056=AXIS2_PLACEMENT_3D('',#1598,#1266,#1267);
#1057=AXIS2_PLACEMENT_3D('',#1600,#1268,#1269);
#1058=AXIS2_PLACEMENT_3D('',#1601,#1270,#1271);
#1059=AXIS2_PLACEMENT_3D('',#1603,#1272,#1273);
#1060=AXIS2_PLACEMENT_3D('',#1606,#1275,#1276);
#1061=AXIS2_PLACEMENT_3D('',#1607,#1277,#1278);
#1062=AXIS2_PLACEMENT_3D('',#1609,#1279,#1280);
#1063=AXIS2_PLACEMENT_3D('',#1610,#1281,#1282);
#1064=AXIS2_PLACEMENT_3D('',#1613,#1284,#1285);
#1065=AXIS2_PLACEMENT_3D('',#1614,#1286,#1287);
#1066=AXIS2_PLACEMENT_3D('',#1617,#1289,#1290);
#1067=AXIS2_PLACEMENT_3D('',#1618,#1291,#1292);
#1068=AXIS2_PLACEMENT_3D('',#1621,#1294,#1295);
#1069=AXIS2_PLACEMENT_3D('',#1622,#1296,#1297);
#1070=AXIS2_PLACEMENT_3D('',#1625,#1299,#1300);
#1071=AXIS2_PLACEMENT_3D('',#1626,#1301,#1302);
#1072=AXIS2_PLACEMENT_3D('',#1635,#1307,#1308);
#1073=AXIS2_PLACEMENT_3D('',#1641,#1312,#1313);
#1074=AXIS2_PLACEMENT_3D('',#1647,#1317,#1318);
#1075=AXIS2_PLACEMENT_3D('',#1653,#1322,#1323);
#1076=AXIS2_PLACEMENT_3D('',#1659,#1327,#1328);
#1077=AXIS2_PLACEMENT_3D('',#1665,#1332,#1333);
#1078=AXIS2_PLACEMENT_3D('',#1672,#1338,#1339);
#1079=AXIS2_PLACEMENT_3D('',#1675,#1342,#1343);
#1080=AXIS2_PLACEMENT_3D('',#1681,#1347,#1348);
#1081=AXIS2_PLACEMENT_3D('',#1683,#1349,#1350);
#1082=AXIS2_PLACEMENT_3D('',#1686,#1352,#1353);
#1083=AXIS2_PLACEMENT_3D('',#1687,#1354,#1355);
#1084=AXIS2_PLACEMENT_3D('',#1689,#1356,#1357);
#1085=AXIS2_PLACEMENT_3D('',#1690,#1358,#1359);
#1086=AXIS2_PLACEMENT_3D('',#1691,#1360,#1361);
#1087=AXIS2_PLACEMENT_3D('',#1694,#1363,#1364);
#1088=AXIS2_PLACEMENT_3D('',#1695,#1365,#1366);
#1089=AXIS2_PLACEMENT_3D('',#1699,#1369,#1370);
#1090=AXIS2_PLACEMENT_3D('',#1703,#1373,#1374);
#1091=AXIS2_PLACEMENT_3D('',#1705,#1376,#1377);
#1092=DIRECTION('axis',(0.,0.,1.));
#1093=DIRECTION('refdir',(1.,0.,0.));
#1094=DIRECTION('center_axis',(0.,-1.,0.));
#1095=DIRECTION('ref_axis',(0.707106781186549,0.,-0.707106781186546));
#1096=DIRECTION('center_axis',(0.,1.,0.));
#1097=DIRECTION('ref_axis',(0.707106781186549,0.,-0.707106781186546));
#1098=DIRECTION('',(0.,1.,0.));
#1099=DIRECTION('center_axis',(0.,-1.,0.));
#1100=DIRECTION('ref_axis',(1.11022302462516E-15,0.,-1.));
#1101=DIRECTION('',(0.,-1.,0.));
#1102=DIRECTION('center_axis',(-1.,0.,0.));
#1103=DIRECTION('ref_axis',(0.,0.,1.));
#1104=DIRECTION('center_axis',(1.,0.,0.));
#1105=DIRECTION('ref_axis',(0.,0.43301270189222,0.901387818865997));
#1106=DIRECTION('center_axis',(-1.,0.,0.));
#1107=DIRECTION('ref_axis',(0.,0.43301270189222,0.901387818865997));
#1108=DIRECTION('center_axis',(1.,2.85587916302291E-16,0.));
#1109=DIRECTION('ref_axis',(-4.44089209850063E-16,0.7806247497998,0.624999999999999));
#1110=DIRECTION('',(-1.,-2.85587916302291E-16,0.));
#1111=DIRECTION('',(-1.,-2.85587916302291E-16,0.));
#1112=DIRECTION('center_axis',(0.,0.,-1.));
#1113=DIRECTION('ref_axis',(1.,0.,0.));
#1114=DIRECTION('',(1.,0.,0.));
#1115=DIRECTION('',(0.,-1.,0.));
#1116=DIRECTION('center_axis',(0.,0.,-1.));
#1117=DIRECTION('ref_axis',(0.39,0.920814856526544,0.));
#1118=DIRECTION('center_axis',(0.,-1.,0.));
#1119=DIRECTION('ref_axis',(1.,0.,0.));
#1120=DIRECTION('',(0.,0.,1.));
#1121=DIRECTION('center_axis',(0.,-1.,0.));
#1122=DIRECTION('ref_axis',(-0.707106781186549,0.,0.707106781186546));
#1123=DIRECTION('',(1.,0.,0.));
#1124=DIRECTION('center_axis',(0.,-1.,0.));
#1125=DIRECTION('ref_axis',(0.707106781186549,0.,0.707106781186546));
#1126=DIRECTION('',(-3.70074341541719E-16,0.,-1.));
#1127=DIRECTION('center_axis',(0.,1.,0.));
#1128=DIRECTION('ref_axis',(-0.707106781186549,0.,-0.707106781186546));
#1129=DIRECTION('',(1.,0.,0.));
#1130=DIRECTION('',(0.,0.,1.));
#1131=DIRECTION('',(-1.,0.,0.));
#1132=DIRECTION('',(0.,0.,-1.));
#1133=DIRECTION('center_axis',(0.,1.,0.));
#1134=DIRECTION('ref_axis',(1.,0.,0.));
#1135=DIRECTION('center_axis',(0.,1.,0.));
#1136=DIRECTION('ref_axis',(1.,0.,0.));
#1137=DIRECTION('center_axis',(0.,1.,0.));
#1138=DIRECTION('ref_axis',(1.,0.,0.));
#1139=DIRECTION('center_axis',(0.,1.,0.));
#1140=DIRECTION('ref_axis',(1.,0.,0.));
#1141=DIRECTION('center_axis',(0.,1.,0.));
#1142=DIRECTION('ref_axis',(-0.707106781186549,0.,-0.707106781186546));
#1143=DIRECTION('',(0.,1.,0.));
#1144=DIRECTION('center_axis',(0.,-1.,0.));
#1145=DIRECTION('ref_axis',(-1.,0.,0.));
#1146=DIRECTION('',(0.,-1.,0.));
#1147=DIRECTION('center_axis',(-1.,0.,1.8503717077086E-16));
#1148=DIRECTION('ref_axis',(1.11022302462516E-16,0.,1.));
#1149=DIRECTION('center_axis',(1.,0.,-1.8503717077086E-16));
#1150=DIRECTION('ref_axis',(1.66533453693774E-16,0.43301270189222,0.901387818865997));
#1151=DIRECTION('center_axis',(-1.,0.,1.8503717077086E-16));
#1152=DIRECTION('ref_axis',(1.6679025177028E-16,0.43301270189222,0.901387818865997));
#1153=DIRECTION('center_axis',(1.,0.,-1.8503717077086E-16));
#1154=DIRECTION('ref_axis',(-1.8503717077086E-16,0.,-1.));
#1155=DIRECTION('',(0.,-1.,0.));
#1156=DIRECTION('',(1.8503717077086E-16,6.80991803540238E-32,1.));
#1157=DIRECTION('',(8.54017711250121E-17,1.,0.));
#1158=DIRECTION('center_axis',(0.,0.,-1.));
#1159=DIRECTION('ref_axis',(1.,0.,0.));
#1160=DIRECTION('',(1.,2.85587916302291E-16,0.));
#1161=DIRECTION('center_axis',(0.,0.,-1.));
#1162=DIRECTION('ref_axis',(-0.39,0.920814856526544,0.));
#1163=DIRECTION('',(0.,-1.,0.));
#1164=DIRECTION('center_axis',(0.,0.,1.));
#1165=DIRECTION('ref_axis',(-0.39,0.920814856526544,0.));
#1166=DIRECTION('',(0.,0.,-1.));
#1167=DIRECTION('center_axis',(0.,0.,1.));
#1168=DIRECTION('ref_axis',(-0.39,0.920814856526544,0.));
#1169=DIRECTION('',(0.,0.,-1.));
#1170=DIRECTION('center_axis',(0.,0.,-1.));
#1171=DIRECTION('ref_axis',(0.39,0.920814856526544,0.));
#1172=DIRECTION('',(0.,0.,1.));
#1173=DIRECTION('center_axis',(0.,0.,1.));
#1174=DIRECTION('ref_axis',(0.39,0.920814856526544,0.));
#1175=DIRECTION('',(0.,0.,-1.));
#1176=DIRECTION('center_axis',(-1.,-2.14190937226718E-16,0.));
#1177=DIRECTION('ref_axis',(0.,0.7806247497998,-0.624999999999999));
#1178=DIRECTION('',(-1.,-2.14190937226718E-16,0.));
#1179=DIRECTION('',(-1.,-2.14190937226718E-16,0.));
#1180=DIRECTION('center_axis',(1.,2.85587916302291E-16,0.));
#1181=DIRECTION('ref_axis',(-4.44089209850063E-16,0.7806247497998,0.624999999999999));
#1182=DIRECTION('',(-1.,-2.85587916302291E-16,0.));
#1183=DIRECTION('center_axis',(1.,0.,0.));
#1184=DIRECTION('ref_axis',(0.,0.,1.));
#1185=DIRECTION('',(0.,-1.,0.));
#1186=DIRECTION('center_axis',(0.,0.,1.));
#1187=DIRECTION('ref_axis',(-1.,0.,0.));
#1188=DIRECTION('',(0.,-1.,0.));
#1189=DIRECTION('center_axis',(2.14190937226718E-16,-1.,0.));
#1190=DIRECTION('ref_axis',(-1.,-2.14190937226718E-16,0.));
#1191=DIRECTION('center_axis',(-2.14190937226718E-16,1.,0.));
#1192=DIRECTION('ref_axis',(1.,0.,0.));
#1193=DIRECTION('center_axis',(2.14190937226718E-16,-1.,0.));
#1194=DIRECTION('ref_axis',(-1.,-2.14190937226718E-16,0.));
#1195=DIRECTION('center_axis',(-2.14190937226718E-16,1.,0.));
#1196=DIRECTION('ref_axis',(1.,0.,0.));
#1197=DIRECTION('center_axis',(2.14190937226718E-16,-1.,0.));
#1198=DIRECTION('ref_axis',(-1.,-2.14190937226718E-16,0.));
#1199=DIRECTION('center_axis',(-2.14190937226718E-16,1.,0.));
#1200=DIRECTION('ref_axis',(1.,0.,0.));
#1201=DIRECTION('center_axis',(2.14190937226718E-16,-1.,0.));
#1202=DIRECTION('ref_axis',(-1.,-2.14190937226718E-16,0.));
#1203=DIRECTION('center_axis',(-2.14190937226718E-16,1.,0.));
#1204=DIRECTION('ref_axis',(1.,0.,0.));
#1205=DIRECTION('center_axis',(0.,1.,0.));
#1206=DIRECTION('ref_axis',(0.707106781186549,0.,0.707106781186546));
#1207=DIRECTION('',(0.,1.,0.));
#1208=DIRECTION('center_axis',(-3.68029731919941E-16,1.,0.));
#1209=DIRECTION('ref_axis',(0.707106781186549,0.,0.707106781186546));
#1210=DIRECTION('center_axis',(0.,0.,1.));
#1211=DIRECTION('ref_axis',(1.,0.,0.));
#1212=DIRECTION('',(0.,-1.,0.));
#1213=DIRECTION('',(-1.,-3.68029731919941E-16,0.));
#1214=DIRECTION('center_axis',(0.,1.,0.));
#1215=DIRECTION('ref_axis',(-0.707106781186549,0.,0.707106781186546));
#1216=DIRECTION('',(0.,1.,0.));
#1217=DIRECTION('center_axis',(-3.68029731919941E-16,1.,0.));
#1218=DIRECTION('ref_axis',(-0.707106781186549,0.,0.707106781186546));
#1219=DIRECTION('center_axis',(-1.,0.,0.));
#1220=DIRECTION('ref_axis',(0.,0.,1.));
#1221=DIRECTION('',(-8.54017711250121E-17,-1.,0.));
#1222=DIRECTION('',(0.,0.,-1.));
#1223=DIRECTION('center_axis',(0.,-1.,0.));
#1224=DIRECTION('ref_axis',(1.,0.,0.));
#1225=DIRECTION('',(0.,1.,0.));
#1226=DIRECTION('center_axis',(0.,-1.,0.));
#1227=DIRECTION('ref_axis',(1.,0.,0.));
#1228=DIRECTION('',(0.,1.,0.));
#1229=DIRECTION('center_axis',(0.,-1.,0.));
#1230=DIRECTION('ref_axis',(1.,0.,0.));
#1231=DIRECTION('',(0.,1.,0.));
#1232=DIRECTION('center_axis',(0.,-1.,0.));
#1233=DIRECTION('ref_axis',(1.,0.,0.));
#1234=DIRECTION('',(0.,1.,0.));
#1235=DIRECTION('center_axis',(-1.,0.,0.));
#1236=DIRECTION('ref_axis',(0.,0.,-1.));
#1237=DIRECTION('center_axis',(0.,0.,-1.));
#1238=DIRECTION('ref_axis',(1.,0.,0.));
#1239=DIRECTION('center_axis',(0.,0.,-1.));
#1240=DIRECTION('ref_axis',(1.,0.,0.));
#1241=DIRECTION('',(0.,0.,-1.));
#1242=DIRECTION('center_axis',(0.,0.,-1.));
#1243=DIRECTION('ref_axis',(1.,0.,0.));
#1244=DIRECTION('center_axis',(0.,0.,1.));
#1245=DIRECTION('ref_axis',(1.,0.,0.));
#1246=DIRECTION('center_axis',(0.,0.,1.));
#1247=DIRECTION('ref_axis',(1.,0.,0.));
#1248=DIRECTION('center_axis',(0.,0.,-1.));
#1249=DIRECTION('ref_axis',(1.,0.,0.));
#1250=DIRECTION('center_axis',(0.,0.,-1.));
#1251=DIRECTION('ref_axis',(1.,0.,0.));
#1252=DIRECTION('',(0.,0.,-1.));
#1253=DIRECTION('center_axis',(0.,0.,-1.));
#1254=DIRECTION('ref_axis',(1.,0.,0.));
#1255=DIRECTION('center_axis',(0.,0.,1.));
#1256=DIRECTION('ref_axis',(1.,0.,0.));
#1257=DIRECTION('center_axis',(0.,0.,1.));
#1258=DIRECTION('ref_axis',(1.,0.,0.));
#1259=DIRECTION('center_axis',(0.,0.,-1.));
#1260=DIRECTION('ref_axis',(1.,0.,0.));
#1261=DIRECTION('center_axis',(0.,0.,-1.));
#1262=DIRECTION('ref_axis',(1.,0.,0.));
#1263=DIRECTION('',(0.,0.,-1.));
#1264=DIRECTION('center_axis',(0.,0.,-1.));
#1265=DIRECTION('ref_axis',(1.,0.,0.));
#1266=DIRECTION('center_axis',(0.,0.,1.));
#1267=DIRECTION('ref_axis',(1.,0.,0.));
#1268=DIRECTION('center_axis',(0.,0.,1.));
#1269=DIRECTION('ref_axis',(1.,0.,0.));
#1270=DIRECTION('center_axis',(0.,0.,-1.));
#1271=DIRECTION('ref_axis',(1.,0.,0.));
#1272=DIRECTION('center_axis',(0.,0.,-1.));
#1273=DIRECTION('ref_axis',(1.,0.,0.));
#1274=DIRECTION('',(0.,0.,-1.));
#1275=DIRECTION('center_axis',(0.,0.,-1.));
#1276=DIRECTION('ref_axis',(1.,0.,0.));
#1277=DIRECTION('center_axis',(0.,0.,1.));
#1278=DIRECTION('ref_axis',(1.,0.,0.));
#1279=DIRECTION('center_axis',(0.,0.,1.));
#1280=DIRECTION('ref_axis',(1.,0.,0.));
#1281=DIRECTION('center_axis',(0.,0.,-1.));
#1282=DIRECTION('ref_axis',(1.,0.,0.));
#1283=DIRECTION('',(0.,0.,-1.));
#1284=DIRECTION('center_axis',(0.,0.,1.));
#1285=DIRECTION('ref_axis',(1.,0.,0.));
#1286=DIRECTION('center_axis',(0.,0.,-1.));
#1287=DIRECTION('ref_axis',(1.,0.,0.));
#1288=DIRECTION('',(0.,0.,-1.));
#1289=DIRECTION('center_axis',(0.,0.,1.));
#1290=DIRECTION('ref_axis',(1.,0.,0.));
#1291=DIRECTION('center_axis',(0.,0.,-1.));
#1292=DIRECTION('ref_axis',(1.,0.,0.));
#1293=DIRECTION('',(0.,0.,-1.));
#1294=DIRECTION('center_axis',(0.,0.,1.));
#1295=DIRECTION('ref_axis',(1.,0.,0.));
#1296=DIRECTION('center_axis',(0.,0.,-1.));
#1297=DIRECTION('ref_axis',(1.,0.,0.));
#1298=DIRECTION('',(0.,0.,-1.));
#1299=DIRECTION('center_axis',(0.,0.,1.));
#1300=DIRECTION('ref_axis',(1.,0.,0.));
#1301=DIRECTION('center_axis',(1.,0.,0.));
#1302=DIRECTION('ref_axis',(0.,-1.,0.));
#1303=DIRECTION('',(0.,1.,0.));
#1304=DIRECTION('',(0.,0.,-1.));
#1305=DIRECTION('',(0.,-1.,0.));
#1306=DIRECTION('',(0.,0.,-1.));
#1307=DIRECTION('center_axis',(0.707106781186547,-0.707106781186549,0.));
#1308=DIRECTION('ref_axis',(-0.707106781186548,-0.707106781186546,0.));
#1309=DIRECTION('',(0.707106781186548,0.707106781186546,0.));
#1310=DIRECTION('',(-0.707106781186548,-0.707106781186546,0.));
#1311=DIRECTION('',(0.,0.,-1.));
#1312=DIRECTION('center_axis',(3.68029731919941E-16,-1.,0.));
#1313=DIRECTION('ref_axis',(-1.,-3.68029731919941E-16,0.));
#1314=DIRECTION('',(1.,3.68029731919941E-16,0.));
#1315=DIRECTION('',(-1.,-3.68029731919941E-16,0.));
#1316=DIRECTION('',(0.,0.,-1.));
#1317=DIRECTION('center_axis',(-0.707106781186547,-0.707106781186548,0.));
#1318=DIRECTION('ref_axis',(-0.707106781186548,0.707106781186547,0.));
#1319=DIRECTION('',(0.707106781186548,-0.707106781186547,0.));
#1320=DIRECTION('',(-0.707106781186548,0.707106781186547,0.));
#1321=DIRECTION('',(0.,0.,-1.));
#1322=DIRECTION('center_axis',(-1.,-3.68029731919941E-16,0.));
#1323=DIRECTION('ref_axis',(-3.68029731919941E-16,1.,0.));
#1324=DIRECTION('',(3.68029731919941E-16,-1.,0.));
#1325=DIRECTION('',(-3.68029731919941E-16,1.,0.));
#1326=DIRECTION('',(0.,0.,-1.));
#1327=DIRECTION('center_axis',(-0.707106781186548,0.707106781186547,0.));
#1328=DIRECTION('ref_axis',(0.707106781186547,0.707106781186548,0.));
#1329=DIRECTION('',(-0.707106781186547,-0.707106781186548,0.));
#1330=DIRECTION('',(0.707106781186547,0.707106781186548,0.));
#1331=DIRECTION('',(0.,0.,-1.));
#1332=DIRECTION('center_axis',(-3.68029731919941E-16,1.,0.));
#1333=DIRECTION('ref_axis',(1.,3.68029731919941E-16,0.));
#1334=DIRECTION('',(1.,3.68029731919941E-16,0.));
#1335=DIRECTION('',(0.,0.,-1.));
#1336=DIRECTION('',(-1.,-3.68029731919941E-16,0.));
#1337=DIRECTION('',(1.,3.68029731919941E-16,0.));
#1338=DIRECTION('center_axis',(0.707106781186547,0.707106781186548,0.));
#1339=DIRECTION('ref_axis',(0.707106781186548,-0.707106781186547,0.));
#1340=DIRECTION('',(-0.707106781186548,0.707106781186547,0.));
#1341=DIRECTION('',(0.707106781186548,-0.707106781186547,0.));
#1342=DIRECTION('center_axis',(0.,0.,-1.));
#1343=DIRECTION('ref_axis',(-1.,0.,0.));
#1344=DIRECTION('',(0.,1.,0.));
#1345=DIRECTION('',(1.,0.,0.));
#1346=DIRECTION('',(0.,-1.,0.));
#1347=DIRECTION('center_axis',(0.,0.,1.));
#1348=DIRECTION('ref_axis',(1.,0.,0.));
#1349=DIRECTION('center_axis',(0.,0.,1.));
#1350=DIRECTION('ref_axis',(1.,0.,0.));
#1351=DIRECTION('',(0.,0.,1.));
#1352=DIRECTION('center_axis',(0.,0.,1.));
#1353=DIRECTION('ref_axis',(1.,0.,0.));
#1354=DIRECTION('center_axis',(0.,0.,-1.));
#1355=DIRECTION('ref_axis',(1.,0.,0.));
#1356=DIRECTION('center_axis',(0.,0.,-1.));
#1357=DIRECTION('ref_axis',(1.,0.,0.));
#1358=DIRECTION('center_axis',(0.,0.,1.));
#1359=DIRECTION('ref_axis',(1.,0.,0.));
#1360=DIRECTION('center_axis',(0.,0.,-1.));
#1361=DIRECTION('ref_axis',(1.,0.,0.));
#1362=DIRECTION('',(0.,0.,1.));
#1363=DIRECTION('center_axis',(0.,0.,-1.));
#1364=DIRECTION('ref_axis',(1.,0.,0.));
#1365=DIRECTION('center_axis',(-1.,0.,0.));
#1366=DIRECTION('ref_axis',(0.,1.,0.));
#1367=DIRECTION('',(0.,1.,0.));
#1368=DIRECTION('',(0.,0.,-1.));
#1369=DIRECTION('center_axis',(1.,0.,0.));
#1370=DIRECTION('ref_axis',(0.,-1.,0.));
#1371=DIRECTION('',(0.,-1.,0.));
#1372=DIRECTION('',(0.,0.,-1.));
#1373=DIRECTION('center_axis',(0.,1.,0.));
#1374=DIRECTION('ref_axis',(1.,0.,0.));
#1375=DIRECTION('',(1.,0.,0.));
#1376=DIRECTION('center_axis',(0.,0.,1.));
#1377=DIRECTION('ref_axis',(1.,0.,0.));
#1378=CARTESIAN_POINT('',(0.,0.,0.));
#1379=CARTESIAN_POINT('Origin',(-9.50000000000001,-31.1,-50.75));
#1380=CARTESIAN_POINT('',(-6.50000000000002,-81.1,-50.75));
#1381=CARTESIAN_POINT('',(-9.50000000000001,-81.1,-53.75));
#1382=CARTESIAN_POINT('Origin',(-9.50000000000001,-81.1,-50.75));
#1383=CARTESIAN_POINT('',(-9.50000000000001,-38.906247497998,-53.75));
#1384=CARTESIAN_POINT('',(-9.50000000000001,-31.1,-53.75));
#1385=CARTESIAN_POINT('',(-6.50000000000001,-38.906247497998,-50.75));
#1386=CARTESIAN_POINT('Origin',(-9.50000000000001,-38.906247497998,-50.75));
#1387=CARTESIAN_POINT('',(-6.50000000000001,-31.1,-50.75));
#1388=CARTESIAN_POINT('Origin',(-9.50000000000001,-38.906247497998,-63.75));
#1389=CARTESIAN_POINT('',(-9.50000000000001,-31.1,-57.5));
#1390=CARTESIAN_POINT('',(-6.50000000000002,-27.50723438282,-57.5));
#1391=CARTESIAN_POINT('Ctrl Pts',(-9.50000000000001,-31.1,-57.5));
#1392=CARTESIAN_POINT('Ctrl Pts',(-9.15389959731822,-31.1,-57.5));
#1393=CARTESIAN_POINT('Ctrl Pts',(-8.75025070546809,-31.0022315189403,-57.5));
#1394=CARTESIAN_POINT('Ctrl Pts',(-8.08323705163287,-30.6826926332661,-57.5));
#1395=CARTESIAN_POINT('Ctrl Pts',(-7.7140882119808,-30.3882360145777,-57.5));
#1396=CARTESIAN_POINT('Ctrl Pts',(-7.16779216464544,-29.7642331359103,-57.5));
#1397=CARTESIAN_POINT('Ctrl Pts',(-6.90478359548261,-29.3121584375409,-57.5));
#1398=CARTESIAN_POINT('Ctrl Pts',(-6.59659292848619,-28.483882603925,-57.5));
#1399=CARTESIAN_POINT('Ctrl Pts',(-6.50000000000001,-27.9551429558402,-57.5));
#1400=CARTESIAN_POINT('Ctrl Pts',(-6.50000000000001,-27.50723438282,-57.5));
#1401=CARTESIAN_POINT('Origin',(-6.50000000000001,-38.906247497998,-63.75));
#1402=CARTESIAN_POINT('Origin',(-9.50000000000001,-38.906247497998,-63.75));
#1403=CARTESIAN_POINT('Origin',(31.1,-38.906247497998,-63.75));
#1404=CARTESIAN_POINT('',(-25.0987539472249,-38.906247497998,-53.75));
#1405=CARTESIAN_POINT('',(31.1,-38.906247497998,-53.75));
#1406=CARTESIAN_POINT('',(-31.1,-31.1,-57.5));
#1407=CARTESIAN_POINT('Ctrl Pts',(-25.0987539472249,-38.906247497998,-53.75));
#1408=CARTESIAN_POINT('Ctrl Pts',(-25.1258589864966,-38.7148119756451,-53.75));
#1409=CARTESIAN_POINT('Ctrl Pts',(-25.158574535594,-38.5238337913078,-53.7555088398427));
#1410=CARTESIAN_POINT('Ctrl Pts',(-25.4151229845176,-37.2497607290876,-53.8285163733058));
#1411=CARTESIAN_POINT('Ctrl Pts',(-25.8241510428681,-36.2093718544164,-54.0759825854923));
#1412=CARTESIAN_POINT('Ctrl Pts',(-26.6525644549684,-34.7611025582396,-54.6282880474394));
#1413=CARTESIAN_POINT('Ctrl Pts',(-27.0686419708123,-34.1777598381952,-54.9172725419185));
#1414=CARTESIAN_POINT('Ctrl Pts',(-27.9981255070289,-33.134456473311,-55.5608548364206));
#1415=CARTESIAN_POINT('Ctrl Pts',(-28.511356392408,-32.6735073973102,-55.914102138848));
#1416=CARTESIAN_POINT('Ctrl Pts',(-29.6292902438742,-31.8375979516365,-56.6498109174503));
#1417=CARTESIAN_POINT('Ctrl Pts',(-30.3362943842555,-31.4234582804885,-57.0960007371568));
#1418=CARTESIAN_POINT('Ctrl Pts',(-31.1,-31.1,-57.5));
#1419=CARTESIAN_POINT('',(31.1,-31.1,-57.5));
#1420=CARTESIAN_POINT('Origin',(-25.,-31.1,-53.75));
#1421=CARTESIAN_POINT('',(-25.,-81.1,-53.75));
#1422=CARTESIAN_POINT('',(25.,-81.1,-53.75));
#1423=CARTESIAN_POINT('',(-25.,-40.3081485652655,-53.75));
#1424=CARTESIAN_POINT('',(-25.,-31.1,-53.75));
#1425=CARTESIAN_POINT('Origin',(-35.,-40.3081485652655,-53.75));
#1426=CARTESIAN_POINT('Origin',(-4.44089209850063E-15,-81.1,-28.75));
#1427=CARTESIAN_POINT('',(-6.50000000000002,-81.1,-48.5));
#1428=CARTESIAN_POINT('',(-6.50000000000002,-81.1,-41.25));
#1429=CARTESIAN_POINT('',(-4.50000000000001,-81.1,-46.5));
#1430=CARTESIAN_POINT('Origin',(-4.50000000000001,-81.1,-48.5));
#1431=CARTESIAN_POINT('',(4.49999999999999,-81.1,-46.5));
#1432=CARTESIAN_POINT('',(-6.50000000000002,-81.1,-46.5));
#1433=CARTESIAN_POINT('',(6.49999999999999,-81.1,-48.5));
#1434=CARTESIAN_POINT('Origin',(4.49999999999999,-81.1,-48.5));
#1435=CARTESIAN_POINT('',(6.49999999999999,-81.1,-50.75));
#1436=CARTESIAN_POINT('',(6.49999999999999,-81.1,-46.5));
#1437=CARTESIAN_POINT('',(9.49999999999999,-81.1,-53.75));
#1438=CARTESIAN_POINT('Origin',(9.49999999999999,-81.1,-50.75));
#1439=CARTESIAN_POINT('',(25.,-81.1,-53.75));
#1440=CARTESIAN_POINT('',(25.,-81.1,-53.75));
#1441=CARTESIAN_POINT('',(25.,-81.1,-3.75000000000001));
#1442=CARTESIAN_POINT('',(25.,-81.1,-3.75000000000001));
#1443=CARTESIAN_POINT('',(-25.,-81.1,-3.75000000000001));
#1444=CARTESIAN_POINT('',(-25.,-81.1,-3.75000000000001));
#1445=CARTESIAN_POINT('',(-25.,-81.1,-53.75));
#1446=CARTESIAN_POINT('',(-19.9506589490809,-81.1,-11.6994396193834));
#1447=CARTESIAN_POINT('Origin',(-17.0506589490809,-81.1,-11.6994396193834));
#1448=CARTESIAN_POINT('',(14.1506589490809,-81.1,-11.6994396193834));
#1449=CARTESIAN_POINT('Origin',(17.0506589490809,-81.1,-11.6994396193834));
#1450=CARTESIAN_POINT('',(-19.9506589490809,-81.1,-45.8005603806166));
#1451=CARTESIAN_POINT('Origin',(-17.0506589490809,-81.1,-45.8005603806166));
#1452=CARTESIAN_POINT('',(14.1506589490809,-81.1,-45.8005603806166));
#1453=CARTESIAN_POINT('Origin',(17.0506589490809,-81.1,-45.8005603806166));
#1454=CARTESIAN_POINT('Origin',(9.49999999999999,-31.1,-50.75));
#1455=CARTESIAN_POINT('',(6.49999999999999,-38.906247497998,-50.75));
#1456=CARTESIAN_POINT('',(6.49999999999999,-31.1,-50.75));
#1457=CARTESIAN_POINT('',(9.49999999999999,-38.906247497998,-53.75));
#1458=CARTESIAN_POINT('Origin',(9.49999999999999,-38.906247497998,-50.75));
#1459=CARTESIAN_POINT('',(9.49999999999999,-31.1,-53.75));
#1460=CARTESIAN_POINT('Origin',(9.5,-38.906247497998,-63.75));
#1461=CARTESIAN_POINT('',(6.49999999999998,-27.50723438282,-57.5));
#1462=CARTESIAN_POINT('',(9.5,-31.1,-57.5));
#1463=CARTESIAN_POINT('Ctrl Pts',(6.5,-27.50723438282,-57.5));
#1464=CARTESIAN_POINT('Ctrl Pts',(6.5,-27.9551429558402,-57.5));
#1465=CARTESIAN_POINT('Ctrl Pts',(6.59659292848619,-28.483882603925,-57.5));
#1466=CARTESIAN_POINT('Ctrl Pts',(6.9047835954826,-29.3121584375409,-57.5));
#1467=CARTESIAN_POINT('Ctrl Pts',(7.16779216464543,-29.7642331359103,-57.5));
#1468=CARTESIAN_POINT('Ctrl Pts',(7.71408821198079,-30.3882360145777,-57.5));
#1469=CARTESIAN_POINT('Ctrl Pts',(8.08323705163286,-30.682692633266,-57.5));
#1470=CARTESIAN_POINT('Ctrl Pts',(8.75025070546809,-31.0022315189403,-57.5));
#1471=CARTESIAN_POINT('Ctrl Pts',(9.15389959731821,-31.1,-57.5));
#1472=CARTESIAN_POINT('Ctrl Pts',(9.5,-31.1,-57.5));
#1473=CARTESIAN_POINT('Origin',(9.5,-38.906247497998,-63.75));
#1474=CARTESIAN_POINT('Origin',(6.49999999999999,-38.906247497998,-63.75));
#1475=CARTESIAN_POINT('Origin',(6.49999999999999,-31.1,-46.5));
#1476=CARTESIAN_POINT('',(6.49999999999999,-21.1,-48.5));
#1477=CARTESIAN_POINT('',(6.49999999999999,-31.1,-48.5));
#1478=CARTESIAN_POINT('',(6.49999999999998,-21.1,-57.5));
#1479=CARTESIAN_POINT('',(6.5,-21.1,-28.));
#1480=CARTESIAN_POINT('',(6.49999999999999,-10.55,-57.5));
#1481=CARTESIAN_POINT('Origin',(-25.,-31.1,-53.75));
#1482=CARTESIAN_POINT('',(25.0987539472249,-38.906247497998,-53.75));
#1483=CARTESIAN_POINT('',(31.1,-38.906247497998,-53.75));
#1484=CARTESIAN_POINT('',(25.,-40.3081485652654,-53.75));
#1485=CARTESIAN_POINT('Origin',(35.,-40.3081485652654,-53.75));
#1486=CARTESIAN_POINT('',(25.,-31.1,-53.75));
#1487=CARTESIAN_POINT('Origin',(35.,-40.3081485652654,0.));
#1488=CARTESIAN_POINT('',(31.1,-31.1,0.));
#1489=CARTESIAN_POINT('',(31.1,-31.1,-57.5));
#1490=CARTESIAN_POINT('',(31.1,-31.1,0.));
#1491=CARTESIAN_POINT('',(25.0987539472249,-38.906247497998,-3.75000000000001));
#1492=CARTESIAN_POINT('Ctrl Pts',(31.1,-31.1,3.60822483003176E-15));
#1493=CARTESIAN_POINT('Ctrl Pts',(29.9776745242878,-31.5753473865298,-0.593708695484559));
#1494=CARTESIAN_POINT('Ctrl Pts',(28.8649057501464,-32.2888846518786,-1.34296938174824));
#1495=CARTESIAN_POINT('Ctrl Pts',(27.1600784011413,-34.0154543339995,-2.51737914095528));
#1496=CARTESIAN_POINT('Ctrl Pts',(26.5298217609781,-34.8800442379248,-2.96185211392362));
#1497=CARTESIAN_POINT('Ctrl Pts',(25.807883171849,-36.3355933229646,-3.42657001449487));
#1498=CARTESIAN_POINT('Ctrl Pts',(25.6085278024995,-36.8307557606584,-3.54619199619243));
#1499=CARTESIAN_POINT('Ctrl Pts',(25.2913830454836,-37.8537043878438,-3.70768072237231));
#1500=CARTESIAN_POINT('Ctrl Pts',(25.1739686001036,-38.3750268560324,-3.75000000000001));
#1501=CARTESIAN_POINT('Ctrl Pts',(25.0987539472249,-38.906247497998,-3.75000000000001));
#1502=CARTESIAN_POINT('',(25.,-40.3081485652654,-3.75000000000001));
#1503=CARTESIAN_POINT('Origin',(35.,-40.3081485652654,-3.75000000000001));
#1504=CARTESIAN_POINT('',(25.,-40.3081485652654,0.));
#1505=CARTESIAN_POINT('Ctrl Pts',(25.0987539472249,-38.906247497998,-53.75));
#1506=CARTESIAN_POINT('Ctrl Pts',(25.2308322987234,-37.9734140142622,-53.75));
#1507=CARTESIAN_POINT('Ctrl Pts',(25.4918680488944,-37.0783573287717,-53.8803469681125));
#1508=CARTESIAN_POINT('Ctrl Pts',(26.3038622560494,-35.2534363603866,-54.3845949679997));
#1509=CARTESIAN_POINT('Ctrl Pts',(26.8865692023348,-34.3749045004544,-54.7913256196966));
#1510=CARTESIAN_POINT('Ctrl Pts',(28.6174380519432,-32.4509429101084,-55.9894761203342));
#1511=CARTESIAN_POINT('Ctrl Pts',(29.852999930873,-31.6281518032778,-56.8403386091359));
#1512=CARTESIAN_POINT('Ctrl Pts',(31.1,-31.1,-57.5));
#1513=CARTESIAN_POINT('Origin',(-35.,-40.3081485652655,0.));
#1514=CARTESIAN_POINT('',(-25.,-40.3081485652655,-3.75000000000001));
#1515=CARTESIAN_POINT('',(-25.,-40.3081485652655,0.));
#1516=CARTESIAN_POINT('',(-25.0987539472249,-38.906247497998,-3.75000000000001));
#1517=CARTESIAN_POINT('Origin',(-35.,-40.3081485652655,-3.75000000000001));
#1518=CARTESIAN_POINT('',(-31.1,-31.1,0.));
#1519=CARTESIAN_POINT('Ctrl Pts',(-25.0987539472249,-38.906247497998,-3.75000000000001));
#1520=CARTESIAN_POINT('Ctrl Pts',(-25.2308322987235,-37.9734140142622,-3.75000000000001));
#1521=CARTESIAN_POINT('Ctrl Pts',(-25.4918680488944,-37.0783573287717,-3.61965303188746));
#1522=CARTESIAN_POINT('Ctrl Pts',(-26.3038622560495,-35.2534363603866,-3.11540503200036));
#1523=CARTESIAN_POINT('Ctrl Pts',(-26.8865692023348,-34.3749045004545,-2.70867438030339));
#1524=CARTESIAN_POINT('Ctrl Pts',(-28.6174380519432,-32.4509429101085,-1.51052387966582));
#1525=CARTESIAN_POINT('Ctrl Pts',(-29.852999930873,-31.6281518032778,-0.659661390864115));
#1526=CARTESIAN_POINT('Ctrl Pts',(-31.1,-31.1,6.93889390390723E-16));
#1527=CARTESIAN_POINT('',(-31.1,-31.1,0.));
#1528=CARTESIAN_POINT('Origin',(31.1,-38.906247497998,6.24999999999999));
#1529=CARTESIAN_POINT('',(31.1,-31.1,0.));
#1530=CARTESIAN_POINT('',(31.1,-38.906247497998,-3.75000000000001));
#1531=CARTESIAN_POINT('Origin',(31.1,-38.906247497998,-63.75));
#1532=CARTESIAN_POINT('',(31.1,-31.1,-57.5));
#1533=CARTESIAN_POINT('Origin',(25.,-31.1,-53.75));
#1534=CARTESIAN_POINT('',(25.,-31.1,-3.75000000000001));
#1535=CARTESIAN_POINT('Origin',(25.,-31.1,-3.75000000000001));
#1536=CARTESIAN_POINT('',(-25.,-31.1,-3.75000000000001));
#1537=CARTESIAN_POINT('Origin',(31.1,-71.1,0.));
#1538=CARTESIAN_POINT('',(-19.9506589490809,-71.1,-45.8005603806166));
#1539=CARTESIAN_POINT('Origin',(-17.0506589490809,-71.1,-45.8005603806166));
#1540=CARTESIAN_POINT('Origin',(31.1,-71.1,0.));
#1541=CARTESIAN_POINT('',(14.1506589490809,-71.1,-11.6994396193834));
#1542=CARTESIAN_POINT('Origin',(17.0506589490809,-71.1,-11.6994396193834));
#1543=CARTESIAN_POINT('Origin',(31.1,-71.1,0.));
#1544=CARTESIAN_POINT('',(-19.9506589490809,-71.1,-11.6994396193834));
#1545=CARTESIAN_POINT('Origin',(-17.0506589490809,-71.1,-11.6994396193834));
#1546=CARTESIAN_POINT('Origin',(31.1,-71.1,0.));
#1547=CARTESIAN_POINT('',(14.1506589490809,-71.1,-45.8005603806166));
#1548=CARTESIAN_POINT('Origin',(17.0506589490809,-71.1,-45.8005603806166));
#1549=CARTESIAN_POINT('Origin',(4.49999999999999,-31.1,-48.5));
#1550=CARTESIAN_POINT('',(4.49999999999999,-21.1,-46.5));
#1551=CARTESIAN_POINT('',(4.49999999999999,-31.1,-46.5));
#1552=CARTESIAN_POINT('Origin',(4.49999999999999,-21.1,-48.5));
#1553=CARTESIAN_POINT('Origin',(-6.50000000000001,-31.1,-46.5));
#1554=CARTESIAN_POINT('',(-4.50000000000001,-21.1,-46.5));
#1555=CARTESIAN_POINT('',(-4.50000000000001,-31.1,-46.5));
#1556=CARTESIAN_POINT('',(-12.3,-21.1,-46.5));
#1557=CARTESIAN_POINT('Origin',(-4.50000000000001,-31.1,-48.5));
#1558=CARTESIAN_POINT('',(-6.50000000000001,-21.1,-48.5));
#1559=CARTESIAN_POINT('',(-6.50000000000001,-31.1,-48.5));
#1560=CARTESIAN_POINT('Origin',(-4.50000000000001,-21.1,-48.5));
#1561=CARTESIAN_POINT('Origin',(-6.50000000000001,-31.1,-52.5));
#1562=CARTESIAN_POINT('',(-6.50000000000002,-21.1,-57.5));
#1563=CARTESIAN_POINT('',(-6.50000000000002,-10.55,-57.5));
#1564=CARTESIAN_POINT('',(-6.50000000000001,-21.1,-31.));
#1565=CARTESIAN_POINT('Origin',(17.0506589490809,-31.1,-45.8005603806166));
#1566=CARTESIAN_POINT('',(14.1506589490809,-31.1,-45.8005603806166));
#1567=CARTESIAN_POINT('Origin',(-17.0506589490809,-31.1,-45.8005603806166));
#1568=CARTESIAN_POINT('',(-19.9506589490809,-31.1,-45.8005603806166));
#1569=CARTESIAN_POINT('Origin',(17.0506589490809,-31.1,-11.6994396193834));
#1570=CARTESIAN_POINT('',(14.1506589490809,-31.1,-11.6994396193834));
#1571=CARTESIAN_POINT('Origin',(-17.0506589490809,-31.1,-11.6994396193834));
#1572=CARTESIAN_POINT('',(-19.9506589490809,-31.1,-11.6994396193834));
#1573=CARTESIAN_POINT('Origin',(-25.,-31.1,-3.75000000000001));
#1574=CARTESIAN_POINT('Origin',(15.1401101889587,15.1225634757254,0.));
#1575=CARTESIAN_POINT('',(12.2901101889587,15.1225634757254,0.));
#1576=CARTESIAN_POINT('Origin',(15.1401101889587,15.1225634757254,0.));
#1577=CARTESIAN_POINT('',(12.2901101889587,15.1225634757254,-4.5));
#1578=CARTESIAN_POINT('',(12.2901101889587,15.1225634757254,0.));
#1579=CARTESIAN_POINT('Origin',(15.1401101889587,15.1225634757254,-4.5));
#1580=CARTESIAN_POINT('Origin',(15.1401101889587,15.1225634757254,-4.5));
#1581=CARTESIAN_POINT('',(13.5401101889587,15.1225634757254,-4.5));
#1582=CARTESIAN_POINT('Origin',(15.1401101889587,15.1225634757254,-4.5));
#1583=CARTESIAN_POINT('Origin',(15.1401101889587,-15.1225634757254,0.));
#1584=CARTESIAN_POINT('',(12.2901101889587,-15.1225634757254,0.));
#1585=CARTESIAN_POINT('Origin',(15.1401101889587,-15.1225634757254,0.));
#1586=CARTESIAN_POINT('',(12.2901101889587,-15.1225634757254,-4.5));
#1587=CARTESIAN_POINT('',(12.2901101889587,-15.1225634757254,0.));
#1588=CARTESIAN_POINT('Origin',(15.1401101889587,-15.1225634757254,-4.5));
#1589=CARTESIAN_POINT('Origin',(15.1401101889587,-15.1225634757254,-4.5));
#1590=CARTESIAN_POINT('',(13.5401101889587,-15.1225634757254,-4.5));
#1591=CARTESIAN_POINT('Origin',(15.1401101889587,-15.1225634757254,-4.5));
#1592=CARTESIAN_POINT('Origin',(-15.1401101889587,15.1225634757254,0.));
#1593=CARTESIAN_POINT('',(-17.9901101889587,15.1225634757254,0.));
#1594=CARTESIAN_POINT('Origin',(-15.1401101889587,15.1225634757254,0.));
#1595=CARTESIAN_POINT('',(-17.9901101889587,15.1225634757254,-4.5));
#1596=CARTESIAN_POINT('',(-17.9901101889587,15.1225634757254,0.));
#1597=CARTESIAN_POINT('Origin',(-15.1401101889587,15.1225634757254,-4.5));
#1598=CARTESIAN_POINT('Origin',(-15.1401101889587,15.1225634757254,-4.5));
#1599=CARTESIAN_POINT('',(-16.7401101889587,15.1225634757254,-4.5));
#1600=CARTESIAN_POINT('Origin',(-15.1401101889587,15.1225634757254,-4.5));
#1601=CARTESIAN_POINT('Origin',(-15.1401101889587,-15.1225634757254,0.));
#1602=CARTESIAN_POINT('',(-17.9901101889587,-15.1225634757254,0.));
#1603=CARTESIAN_POINT('Origin',(-15.1401101889587,-15.1225634757254,0.));
#1604=CARTESIAN_POINT('',(-17.9901101889587,-15.1225634757254,-4.5));
#1605=CARTESIAN_POINT('',(-17.9901101889587,-15.1225634757254,0.));
#1606=CARTESIAN_POINT('Origin',(-15.1401101889587,-15.1225634757254,-4.5));
#1607=CARTESIAN_POINT('Origin',(-15.1401101889587,-15.1225634757254,-4.5));
#1608=CARTESIAN_POINT('',(-16.7401101889587,-15.1225634757254,-4.5));
#1609=CARTESIAN_POINT('Origin',(-15.1401101889587,-15.1225634757254,-4.5));
#1610=CARTESIAN_POINT('Origin',(15.1401101889587,-15.1225634757254,0.));
#1611=CARTESIAN_POINT('',(13.5401101889587,-15.1225634757254,-9.5));
#1612=CARTESIAN_POINT('',(13.5401101889587,-15.1225634757254,0.));
#1613=CARTESIAN_POINT('Origin',(15.1401101889587,-15.1225634757254,-9.5));
#1614=CARTESIAN_POINT('Origin',(-15.1401101889587,-15.1225634757254,0.));
#1615=CARTESIAN_POINT('',(-16.7401101889587,-15.1225634757254,-9.5));
#1616=CARTESIAN_POINT('',(-16.7401101889587,-15.1225634757254,0.));
#1617=CARTESIAN_POINT('Origin',(-15.1401101889587,-15.1225634757254,-9.5));
#1618=CARTESIAN_POINT('Origin',(15.1401101889587,15.1225634757254,0.));
#1619=CARTESIAN_POINT('',(13.5401101889587,15.1225634757254,-9.5));
#1620=CARTESIAN_POINT('',(13.5401101889587,15.1225634757254,0.));
#1621=CARTESIAN_POINT('Origin',(15.1401101889587,15.1225634757254,-9.5));
#1622=CARTESIAN_POINT('Origin',(-15.1401101889587,15.1225634757254,0.));
#1623=CARTESIAN_POINT('',(-16.7401101889587,15.1225634757254,-9.5));
#1624=CARTESIAN_POINT('',(-16.7401101889587,15.1225634757254,0.));
#1625=CARTESIAN_POINT('Origin',(-15.1401101889587,15.1225634757254,-9.5));
#1626=CARTESIAN_POINT('Origin',(-21.1,18.1,-9.5));
#1627=CARTESIAN_POINT('',(-21.1,-18.1,-9.5));
#1628=CARTESIAN_POINT('',(-21.1,18.1,-9.5));
#1629=CARTESIAN_POINT('',(-21.1,9.05,-9.5));
#1630=CARTESIAN_POINT('',(-21.1,-18.1,-57.5));
#1631=CARTESIAN_POINT('',(-21.1,-18.1,-9.5));
#1632=CARTESIAN_POINT('',(-21.1,18.1,-57.5));
#1633=CARTESIAN_POINT('',(-21.1,18.1,-57.5));
#1634=CARTESIAN_POINT('',(-21.1,18.1,-9.5));
#1635=CARTESIAN_POINT('Origin',(-18.1,21.1,-9.5));
#1636=CARTESIAN_POINT('',(-18.1,21.1,-9.5));
#1637=CARTESIAN_POINT('',(-18.85,20.35,-9.5));
#1638=CARTESIAN_POINT('',(-18.1,21.1,-57.5));
#1639=CARTESIAN_POINT('',(-21.1,18.1,-57.5));
#1640=CARTESIAN_POINT('',(-18.1,21.1,-9.5));
#1641=CARTESIAN_POINT('Origin',(18.1,21.1,-9.5));
#1642=CARTESIAN_POINT('',(18.1,21.1,-9.5));
#1643=CARTESIAN_POINT('',(9.05,21.1,-9.5));
#1644=CARTESIAN_POINT('',(18.1,21.1,-57.5));
#1645=CARTESIAN_POINT('',(18.1,21.1,-57.5));
#1646=CARTESIAN_POINT('',(18.1,21.1,-9.5));
#1647=CARTESIAN_POINT('Origin',(21.1,18.1,-9.5));
#1648=CARTESIAN_POINT('',(21.1,18.1,-9.5));
#1649=CARTESIAN_POINT('',(20.35,18.85,-9.5));
#1650=CARTESIAN_POINT('',(21.1,18.1,-57.5));
#1651=CARTESIAN_POINT('',(21.1,18.1,-57.5));
#1652=CARTESIAN_POINT('',(21.1,18.1,-9.5));
#1653=CARTESIAN_POINT('Origin',(21.1,-18.1,-9.5));
#1654=CARTESIAN_POINT('',(21.1,-18.1,-9.5));
#1655=CARTESIAN_POINT('',(21.1,-9.05,-9.5));
#1656=CARTESIAN_POINT('',(21.1,-18.1,-57.5));
#1657=CARTESIAN_POINT('',(21.1,-18.1,-57.5));
#1658=CARTESIAN_POINT('',(21.1,-18.1,-9.5));
#1659=CARTESIAN_POINT('Origin',(18.1,-21.1,-9.5));
#1660=CARTESIAN_POINT('',(18.1,-21.1,-9.5));
#1661=CARTESIAN_POINT('',(18.85,-20.35,-9.5));
#1662=CARTESIAN_POINT('',(18.1,-21.1,-57.5));
#1663=CARTESIAN_POINT('',(21.1,-18.1,-57.5));
#1664=CARTESIAN_POINT('',(18.1,-21.1,-9.5));
#1665=CARTESIAN_POINT('Origin',(-18.1,-21.1,-9.5));
#1666=CARTESIAN_POINT('',(-18.1,-21.1,-57.5));
#1667=CARTESIAN_POINT('',(-18.1,-21.1,-57.5));
#1668=CARTESIAN_POINT('',(-18.1,-21.1,-9.5));
#1669=CARTESIAN_POINT('',(-18.1,-21.1,-9.5));
#1670=CARTESIAN_POINT('',(-9.05,-21.1,-9.5));
#1671=CARTESIAN_POINT('',(-18.1,-21.1,-57.5));
#1672=CARTESIAN_POINT('Origin',(-21.1,-18.1,-9.5));
#1673=CARTESIAN_POINT('',(-20.35,-18.85,-9.5));
#1674=CARTESIAN_POINT('',(-18.1,-21.1,-57.5));
#1675=CARTESIAN_POINT('Origin',(-4.44089209850063E-15,-4.44089209850063E-15,
-57.5));
#1676=CARTESIAN_POINT('',(-31.1,31.1,-57.5));
#1677=CARTESIAN_POINT('',(-31.1,-31.1,-57.5));
#1678=CARTESIAN_POINT('',(31.1,31.1,-57.5));
#1679=CARTESIAN_POINT('',(-31.1,31.1,-57.5));
#1680=CARTESIAN_POINT('',(31.1,31.1,-57.5));
#1681=CARTESIAN_POINT('Origin',(0.,0.,-9.5));
#1682=CARTESIAN_POINT('',(-11.25,1.37772764904077E-15,-9.5));
#1683=CARTESIAN_POINT('Origin',(0.,0.,-9.5));
#1684=CARTESIAN_POINT('',(-11.25,1.37772764904077E-15,-7.));
#1685=CARTESIAN_POINT('',(-11.25,-1.37772764904077E-15,-9.5));
#1686=CARTESIAN_POINT('Origin',(0.,0.,-7.));
#1687=CARTESIAN_POINT('Origin',(0.,0.,-7.));
#1688=CARTESIAN_POINT('',(-2.75,3.36777869765522E-16,-7.));
#1689=CARTESIAN_POINT('Origin',(0.,0.,-7.));
#1690=CARTESIAN_POINT('Origin',(-4.44089209850063E-15,-4.44089209850063E-15,
-9.5));
#1691=CARTESIAN_POINT('Origin',(0.,0.,0.));
#1692=CARTESIAN_POINT('',(-2.75,-3.36777869765522E-16,0.));
#1693=CARTESIAN_POINT('',(-2.75,3.36777869765522E-16,0.));
#1694=CARTESIAN_POINT('Origin',(0.,0.,0.));
#1695=CARTESIAN_POINT('Origin',(-31.1,-31.1,0.));
#1696=CARTESIAN_POINT('',(-31.1,31.1,0.));
#1697=CARTESIAN_POINT('',(-31.1,-31.1,0.));
#1698=CARTESIAN_POINT('',(-31.1,31.1,0.));
#1699=CARTESIAN_POINT('Origin',(31.1,31.1,0.));
#1700=CARTESIAN_POINT('',(31.1,31.1,0.));
#1701=CARTESIAN_POINT('',(31.1,31.1,0.));
#1702=CARTESIAN_POINT('',(31.1,31.1,0.));
#1703=CARTESIAN_POINT('Origin',(-31.1,31.1,0.));
#1704=CARTESIAN_POINT('',(-31.1,31.1,0.));
#1705=CARTESIAN_POINT('Origin',(-4.44089209850063E-15,-4.44089209850063E-15,
0.));
#1706=UNCERTAINTY_MEASURE_WITH_UNIT(LENGTH_MEASURE(0.01),#1710,
'DISTANCE_ACCURACY_VALUE',
'Maximum model space distance between geometric entities at asserted c
onnectivities');
#1707=UNCERTAINTY_MEASURE_WITH_UNIT(LENGTH_MEASURE(0.01),#1710,
'DISTANCE_ACCURACY_VALUE',
'Maximum model space distance between geometric entities at asserted c
onnectivities');
#1708=(
GEOMETRIC_REPRESENTATION_CONTEXT(3)
GLOBAL_UNCERTAINTY_ASSIGNED_CONTEXT((#1706))
GLOBAL_UNIT_ASSIGNED_CONTEXT((#1710,#1712,#1713))
REPRESENTATION_CONTEXT('','3D')
);
#1709=(
GEOMETRIC_REPRESENTATION_CONTEXT(3)
GLOBAL_UNCERTAINTY_ASSIGNED_CONTEXT((#1707))
GLOBAL_UNIT_ASSIGNED_CONTEXT((#1710,#1712,#1713))
REPRESENTATION_CONTEXT('','3D')
);
#1710=(
LENGTH_UNIT()
NAMED_UNIT(*)
SI_UNIT(.MILLI.,.METRE.)
);
#1711=(
LENGTH_UNIT()
NAMED_UNIT(*)
SI_UNIT($,.METRE.)
);
#1712=(
NAMED_UNIT(*)
PLANE_ANGLE_UNIT()
SI_UNIT($,.RADIAN.)
);
#1713=(
NAMED_UNIT(*)
SI_UNIT($,.STERADIAN.)
SOLID_ANGLE_UNIT()
);
#1714=SHAPE_DEFINITION_REPRESENTATION(#1715,#1716);
#1715=PRODUCT_DEFINITION_SHAPE('',$,#1718);
#1716=SHAPE_REPRESENTATION('',(#990),#1708);
#1717=PRODUCT_DEFINITION_CONTEXT('part definition',#1722,'design');
#1718=PRODUCT_DEFINITION('Gimbal Base','Gimbal Base v8',#1719,#1717);
#1719=PRODUCT_DEFINITION_FORMATION('',$,#1724);
#1720=PRODUCT_RELATED_PRODUCT_CATEGORY('Gimbal Base v8',
'Gimbal Base v8',(#1724));
#1721=APPLICATION_PROTOCOL_DEFINITION('international standard',
'automotive_design',2009,#1722);
#1722=APPLICATION_CONTEXT(
'Core Data for Automotive Mechanical Design Process');
#1723=PRODUCT_CONTEXT('part definition',#1722,'mechanical');
#1724=PRODUCT('Gimbal Base','Gimbal Base v8',$,(#1723));
#1725=PRESENTATION_STYLE_ASSIGNMENT((#1726));
#1726=SURFACE_STYLE_USAGE(.BOTH.,#1727);
#1727=SURFACE_SIDE_STYLE('',(#1728));
#1728=SURFACE_STYLE_FILL_AREA(#1729);
#1729=FILL_AREA_STYLE('Steel - Satin',(#1730));
#1730=FILL_AREA_STYLE_COLOUR('Steel - Satin',#1731);
#1731=COLOUR_RGB('Steel - Satin',0.627450980392157,0.627450980392157,0.627450980392157);
ENDSEC;
END-ISO-10303-21;
